<?xml version="1.0" encoding="UTF-8"?>
<svg version="1.1" xmlns="http://www.w3.org/2000/svg" width="400" height="400">
<path d="M0 0 C132 0 264 0 400 0 C400 132 400 264 400 400 C268 400 136 400 0 400 C0 268 0 136 0 0 Z " fill="#FDFDFD" transform="translate(0,0)"/>
<path d="M0 0 C132 0 264 0 400 0 C400 42.24 400 84.48 400 128 C268 128 136 128 0 128 C0 85.76 0 43.52 0 0 Z " fill="#02A512" transform="translate(0,272)"/>
<path d="M0 0 C132 0 264 0 400 0 C400 41.91 400 83.82 400 127 C268 127 136 127 0 127 C0 85.09 0 43.18 0 0 Z " fill="#DA8724" transform="translate(0,0)"/>
<path d="M0 0 C4.95 0 9.9 0 15 0 C15.33 17.82 15.66 35.64 16 54 C19.465 50.04 19.465 50.04 23 46 C25.6953125 44.16015625 25.6953125 44.16015625 28.125 43.0625 C29.33542969 42.49208984 29.33542969 42.49208984 30.5703125 41.91015625 C40.96499552 38.01632805 55.69720058 38.32030769 65.7734375 42.8125 C66.87558594 43.4003125 66.87558594 43.4003125 68 44 C68.67289063 44.350625 69.34578125 44.70125 70.0390625 45.0625 C76.73602063 49.16616796 79.59968181 55.91910869 81.60864258 63.26464844 C83.47724297 71.04864236 83.47925584 78.75335342 83.51171875 86.703125 C83.52860405 88.27782555 83.54675933 89.85251295 83.56611633 91.42718506 C83.61320518 95.53037398 83.64327838 99.63350953 83.66955566 103.73687744 C83.69957115 107.94057756 83.74602816 112.14409442 83.79101562 116.34765625 C83.87657961 124.56501322 83.94413082 132.78238768 84 141 C90.94198065 140.90788382 97.88360636 140.80059906 104.82519531 140.68261719 C107.18809651 140.64426473 109.55105734 140.60942308 111.9140625 140.578125 C115.3049048 140.53261034 118.69533424 140.47459381 122.0859375 140.4140625 C123.67817642 140.39673569 123.67817642 140.39673569 125.30258179 140.37905884 C126.77388046 140.3492543 126.77388046 140.3492543 128.27490234 140.31884766 C129.14094086 140.30552399 130.00697937 140.29220032 130.89926147 140.2784729 C133.21757642 140.18779287 133.21757642 140.18779287 135 138 C134.14728516 137.56300781 134.14728516 137.56300781 133.27734375 137.1171875 C122.37130021 131.32733467 114.93839868 124.29143313 110.70703125 112.3515625 C109.70911649 108.91470084 108.80087616 105.48768648 108 102 C107.71189453 100.78376953 107.71189453 100.78376953 107.41796875 99.54296875 C105.05806127 85.18502695 107.30651216 69.21453035 115.51171875 57.0390625 C116.00285156 56.36617187 116.49398438 55.69328125 117 55 C117.7425 53.9275 118.485 52.855 119.25 51.75 C125.67261182 45.32738818 133.28941791 42.12415949 142 40 C142.98613281 39.72542969 142.98613281 39.72542969 143.9921875 39.4453125 C154.36185534 37.14542508 166.63476327 39.72621288 176 44.54296875 C187.27769038 52.05569847 193.83429075 62.23590497 196.60961914 75.45483398 C197.34177782 80.22828878 197.3387291 84.99204795 197.3125 89.8125 C197.30758545 90.87476807 197.3026709 91.93703613 197.29760742 93.03149414 C197.06766176 108.38832685 193.02212937 119.33214537 182.55859375 130.625 C178.45862643 134.43077119 173.85652376 137.25856042 169 140 C169.66 140.66 170.32 141.32 171 142 C63.75 142 -43.5 142 -154 142 C-154 141.67 -154 141.34 -154 141 C-127.27 140.67 -100.54 140.34 -73 140 C-76.3 139.01 -79.6 138.02 -83 137 C-92.39264177 132.80003823 -99.94354074 125.59335659 -104.1953125 116.16796875 C-110.69333203 98.66116855 -111.19249549 79.90827864 -103.5390625 62.71875 C-102.13052276 60.05896938 -100.63756049 57.52382263 -99 55 C-98.13375 53.63875 -98.13375 53.63875 -97.25 52.25 C-88.60572344 43.60572344 -78.13632442 38.94368107 -65.875 38.5625 C-54.35386829 39.0178807 -43.79175754 42.7074594 -35.75 51.125 C-25.30031344 63.63548133 -25 76.80445265 -25 93 C-47.11 93 -69.22 93 -92 93 C-89.84164416 109.51210767 -89.84164416 109.51210767 -80.13671875 121.74609375 C-73.46451817 125.66158989 -67.53144342 126.52208687 -59.9375 126.4375 C-59.02299072 126.43355225 -58.10848145 126.42960449 -57.16625977 126.42553711 C-48.93559856 126.25348008 -41.79033201 124.5829463 -34 122 C-32.68 121.67 -31.36 121.34 -30 121 C-30 125.62 -30 130.24 -30 135 C-34.455 135.99 -34.455 135.99 -39 137 C-39 137.66 -39 138.32 -39 139 C-27.66666667 144.66666667 -13.67105187 140 -1 140 C-0.67 93.8 -0.34 47.6 0 0 Z " fill="#FAFAFD" transform="translate(154,130)"/>
<path d="M0 0 C0.77027112 -0.00085442 1.54054224 -0.00170885 2.3341549 -0.00258917 C4.92293273 -0.00424022 7.5116462 0.0012713 10.10041809 0.00672913 C11.95305378 0.0070111 13.80568957 0.00685306 15.6583252 0.00628662 C20.69518673 0.00599906 25.73202458 0.01188911 30.76888061 0.01886058 C36.0299707 0.025101 41.29106131 0.02569846 46.55215454 0.02688599 C56.51811308 0.02999726 66.48406069 0.03820792 76.45001441 0.04823548 C89.91465994 0.06149 103.37930845 0.06689816 116.84395885 0.07273769 C138.06332391 0.08214793 159.28266587 0.10206822 180.50202942 0.12025452 C180.50202942 42.03025452 180.50202942 83.94025452 180.50202942 127.12025452 C129.68202942 127.12025452 78.86202942 127.12025452 26.50202942 127.12025452 C26.50202942 126.46025452 26.50202942 125.80025452 26.50202942 125.12025452 C25.94515442 125.30587952 25.38827942 125.49150452 24.81452942 125.68275452 C22.10289642 126.19576617 20.15831903 125.78432692 17.50202942 125.12025452 C19.98263717 122.93731969 21.70156874 122.0658347 24.93952942 121.18275452 C28.78615305 120.03551589 30.54431894 118.78219395 33.50202942 116.12025452 C34.07050598 115.71033264 34.63898254 115.30041077 35.22468567 114.87806702 C41.5804055 110.10115657 43.81268378 103.70782331 45.50202942 96.12025452 C45.61988238 93.33001843 45.68701254 90.56262218 45.70735168 87.7716217 C45.71725128 86.93223053 45.72715088 86.09283936 45.73735046 85.22801208 C45.7688994 82.45774644 45.79369677 79.68746365 45.81843567 76.91712952 C45.8390109 74.99470071 45.86000752 73.07227636 45.88140869 71.14985657 C45.93657057 66.09302897 45.9860058 61.03616094 46.03425598 55.97926331 C46.08451396 50.81789049 46.1401776 45.6565763 46.19538879 40.49525452 C46.30289841 30.37030461 46.40435937 20.24530378 46.50202942 10.12025452 C42.87202942 10.12025452 39.24202942 10.12025452 35.50202942 10.12025452 C35.17202942 13.42025452 34.84202942 16.72025452 34.50202942 20.12025452 C33.36765442 19.21275452 32.23327942 18.30525452 31.06452942 17.37025452 C26.82296557 14.16821526 22.4295134 12.05931071 17.50202942 10.12025452 C17.50202942 9.46025452 17.50202942 8.80025452 17.50202942 8.12025452 C14.96008781 8.26214437 12.41854949 8.40864607 9.87702942 8.55775452 C9.16417786 8.59707092 8.45132629 8.63638733 7.71687317 8.67689514 C3.5839926 8.92335132 -0.42066082 9.35495505 -4.49797058 10.12025452 C-4.82797058 9.46025452 -5.15797058 8.80025452 -5.49797058 8.12025452 C-6.81797058 8.12025452 -8.13797058 8.12025452 -9.49797058 8.12025452 C-9.49797058 7.13025452 -9.49797058 6.14025452 -9.49797058 5.12025452 C-10.15797058 5.12025452 -10.81797058 5.12025452 -11.49797058 5.12025452 C-11.18547058 3.18275452 -11.18547058 3.18275452 -10.49797058 1.12025452 C-6.93272936 -0.06815922 -3.70921185 -0.01494874 0 0 Z " fill="#02A512" transform="translate(219.4979705810547,272.87974548339844)"/>
<path d="M0 0 C11.27769038 7.51272972 17.83429075 17.69293622 20.60961914 30.91186523 C21.34177782 35.68532003 21.3387291 40.4490792 21.3125 45.26953125 C21.30512817 46.86293335 21.30512817 46.86293335 21.29760742 48.48852539 C21.06740877 63.86225403 17.00271249 74.94540858 6.4609375 86.22265625 C-4.1796647 95.88364746 -18.09134901 96.2766019 -31.68457031 95.65234375 C-36.6046646 95.23732103 -40.68725825 93.78824301 -45 91.45703125 C-45.78375 91.04453125 -46.5675 90.63203125 -47.375 90.20703125 C-59.02771268 83.27839128 -63.98404251 72.51548632 -67.74609375 59.96875 C-71.32374289 45.2880518 -69.67966225 27.98000123 -62.0625 14.83203125 C-61.06767227 13.35583526 -60.049473 11.89489189 -59 10.45703125 C-58.2575 9.38453125 -57.515 8.31203125 -56.75 7.20703125 C-50.32738818 0.78441943 -42.71058209 -2.41880926 -34 -4.54296875 C-33.34257812 -4.72601563 -32.68515625 -4.9090625 -32.0078125 -5.09765625 C-21.63814466 -7.39754367 -9.36523673 -4.81675587 0 0 Z " fill="#1608B2" transform="translate(330,174.54296875)"/>
<path d="M0 0 C3.26322844 2.16673116 6.08174313 4.61193106 8.94140625 7.2890625 C9.60140625 4.3190625 10.26140625 1.3490625 10.94140625 -1.7109375 C14.57140625 -1.7109375 18.20140625 -1.7109375 21.94140625 -1.7109375 C22.01110659 9.32932192 22.06431899 20.36952845 22.09684277 31.40996361 C22.11245741 36.53722312 22.13361857 41.66433141 22.16772461 46.79150391 C22.20046835 51.74523009 22.21829082 56.69881137 22.22603798 61.65263748 C22.23155463 63.53675236 22.24232695 65.42085986 22.25859642 67.30491257 C22.45543646 91.05753967 22.45543646 91.05753967 14.94140625 100.2890625 C7.59145222 107.63901653 -0.81397225 109.78132807 -11.046875 109.78710938 C-12.20574219 109.76712891 -13.36460937 109.74714844 -14.55859375 109.7265625 C-15.71746094 109.73365234 -16.87632812 109.74074219 -18.0703125 109.74804688 C-25.87395968 109.69073195 -33.00846648 108.81412613 -40.05859375 105.2890625 C-40.05859375 101.3290625 -40.05859375 97.3690625 -40.05859375 93.2890625 C-37.6171875 94.03776042 -35.17578125 94.78645833 -32.734375 95.53515625 C-26.62888219 97.25538999 -20.93039471 97.50418039 -14.62109375 97.5390625 C-13.69232422 97.5596875 -12.76355469 97.5803125 -11.80664062 97.6015625 C-6.47347704 97.63192927 -2.61858261 97.37625993 1.94140625 94.2890625 C3.61396911 92.64535514 3.61396911 92.64535514 4.75390625 90.7890625 C5.15222656 90.20125 5.55054688 89.6134375 5.9609375 89.0078125 C7.64199749 86.06093443 8.06401929 83.59659664 8.0390625 80.27734375 C8.03583984 79.52001953 8.03261719 78.76269531 8.02929688 77.98242188 C8.02091797 77.19673828 8.01253906 76.41105469 8.00390625 75.6015625 C7.99939453 74.80427734 7.99488281 74.00699219 7.99023438 73.18554688 C7.97846475 71.22001993 7.96052973 69.25453165 7.94140625 67.2890625 C7.47992188 67.75957031 7.0184375 68.23007812 6.54296875 68.71484375 C0.0601684 74.90297135 -6.18098458 77.31754664 -15.12109375 77.6640625 C-24.5895805 77.30843858 -31.98635184 73.55016448 -38.52734375 66.765625 C-47.47840076 55.57680374 -47.25028446 40.87331371 -46.05859375 27.2890625 C-44.55961033 16.60471961 -40.46023735 8.61613698 -32.05859375 1.9140625 C-23.25944705 -4.64863441 -9.61347286 -5.07124375 0 0 Z " fill="#F5FCF5" transform="translate(244.05859375,284.7109375)"/>
<path d="M0 0 C10.20739505 7.49166609 14.14902611 17.64297945 17.12890625 29.5625 C17.12890625 35.5025 17.12890625 41.4425 17.12890625 47.5625 C-4.98109375 47.5625 -27.09109375 47.5625 -49.87109375 47.5625 C-47.71273791 64.07460767 -47.71273791 64.07460767 -38.0078125 76.30859375 C-31.33561192 80.22408989 -25.40253717 81.08458687 -17.80859375 81 C-16.89408447 80.99605225 -15.9795752 80.99210449 -15.03735352 80.98803711 C-6.80669231 80.81598008 0.33857424 79.1454463 8.12890625 76.5625 C9.44890625 76.2325 10.76890625 75.9025 12.12890625 75.5625 C12.12890625 80.1825 12.12890625 84.8025 12.12890625 89.5625 C1.55542508 92.87338804 -7.0110108 94.76096609 -18.05859375 94.8125 C-19.14462891 94.833125 -20.23066406 94.85375 -21.34960938 94.875 C-33.49039285 94.93333409 -44.09415902 91.87205992 -53.13671875 83.453125 C-64.2541883 71.51213918 -67.30161697 56.45187 -67.1484375 40.453125 C-66.34962201 29.2472063 -63.00428059 19.01502148 -56.87109375 9.5625 C-56.00484375 8.20125 -56.00484375 8.20125 -55.12109375 6.8125 C-40.16293299 -8.14566076 -18.17666725 -10.92551019 0 0 Z " fill="#1608B1" transform="translate(111.87109375,175.4375)"/>
<path d="M0 0 C0.94746094 -0.02900391 1.89492187 -0.05800781 2.87109375 -0.08789062 C10.70582898 -0.15755653 17.44488578 1.32816936 23.77734375 6.13671875 C24.28394531 6.75160156 24.79054687 7.36648437 25.3125 8 C25.83714844 8.60199219 26.36179687 9.20398438 26.90234375 9.82421875 C31.9260275 18.31251199 31.77633684 27.04589518 31.66796875 36.62890625 C31.66236283 38.09577497 31.65809745 39.56264937 31.65510559 41.02952576 C31.64373501 44.86170376 31.61433665 48.69353233 31.58099365 52.52557373 C31.55012323 56.44733963 31.53656425 60.36916284 31.52148438 64.29101562 C31.489458 71.96500183 31.43835808 79.63870167 31.375 87.3125 C27.745 87.3125 24.115 87.3125 20.375 87.3125 C19.385 83.6825 18.395 80.0525 17.375 76.3125 C16.364375 77.385 15.35375 78.4575 14.3125 79.5625 C7.4877486 86.35978761 0.11748791 89.36792738 -9.5625 89.5625 C-17.32538708 89.41712758 -25.2245522 88.26106808 -31.22265625 82.87890625 C-36.54150142 77.22028227 -38.69224418 71.01620981 -39.0625 63.3125 C-38.83560848 56.68107959 -36.49785732 51.53035735 -32.25 46.5 C-17.98766406 34.61472005 -0.20405368 35.11399124 17.375 35.3125 C17.09229594 32.89447805 16.79920736 30.4784878 16.5 28.0625 C16.42136719 27.38058594 16.34273437 26.69867188 16.26171875 25.99609375 C15.66312887 20.84563418 15.66312887 20.84563418 13.375 16.3125 C7.01035223 12.27698948 -0.27535519 11.08459324 -7.625 12.3125 C-13.41877158 13.95015687 -19.02765363 16.10768361 -24.625 18.3125 C-25.32437202 16.8807384 -26.00912718 15.44182968 -26.6875 14 C-27.07035156 13.19949219 -27.45320313 12.39898437 -27.84765625 11.57421875 C-28.625 9.3125 -28.625 9.3125 -27.625 6.3125 C-24.82421875 4.9609375 -24.82421875 4.9609375 -21.3125 3.6875 C-20.16136719 3.26210938 -19.01023437 2.83671875 -17.82421875 2.3984375 C-11.74740719 0.33573468 -6.3955186 0.06370038 0 0 Z " fill="#FCFAF4" transform="translate(129.625,32.6875)"/>
<path d="M0 0 C4.95 0 9.9 0 15 0 C15.33 17.82 15.66 35.64 16 54 C18.31 51.36 20.62 48.72 23 46 C25.6953125 44.16015625 25.6953125 44.16015625 28.125 43.0625 C28.93195313 42.68222656 29.73890625 42.30195313 30.5703125 41.91015625 C40.96499552 38.01632805 55.69720058 38.32030769 65.7734375 42.8125 C66.50820312 43.204375 67.24296875 43.59625 68 44 C68.67289062 44.350625 69.34578125 44.70125 70.0390625 45.0625 C75.58723074 48.46222862 78.77457033 53.67898828 80.53248596 59.87760925 C82.41201987 68.05215741 82.25375435 76.1777986 82.1953125 84.5078125 C82.19157488 86.08535583 82.18873146 87.6629015 82.18673706 89.240448 C82.17915947 93.36021516 82.15956262 97.47983769 82.1373291 101.59954834 C82.11674295 105.81634567 82.10770824 110.03316673 82.09765625 114.25 C82.0763102 122.50007325 82.04117714 130.75000188 82 139 C77.05 139 72.1 139 67 139 C66.970271 136.02625366 66.970271 136.02625366 66.93994141 132.99243164 C66.87194757 126.41457016 66.79515611 119.83685648 66.71247292 113.25916386 C66.66269972 109.27429187 66.61636936 105.28944399 66.578125 101.30444336 C66.54103075 97.45286075 66.49460825 93.6014896 66.44193649 89.75008965 C66.4235199 88.28666359 66.40836588 86.82319243 66.39665604 85.35969734 C66.68005186 70.25449542 66.68005186 70.25449542 59.82421875 57.44140625 C53.90195533 52.76193045 46.27950367 52.15406379 39 53 C35.57510418 53.77883928 32.30545996 54.81989795 29 56 C28.01 56.309375 27.02 56.61875 26 56.9375 C23.47862856 58.27697858 23.18601945 59.44727845 22 62 C21.67 62.5671875 21.34 63.134375 21 63.71875 C15.54123772 73.44217031 15.69198506 84.76275229 15.5859375 95.640625 C15.56657135 96.88882019 15.5472052 98.13701538 15.5272522 99.42303467 C15.46801548 103.36528941 15.42129638 107.30757425 15.375 111.25 C15.33779123 113.94143414 15.29783726 116.6328252 15.2578125 119.32421875 C15.16236046 125.88271733 15.07812545 132.44127307 15 139 C10.05 139 5.1 139 0 139 C0 93.13 0 47.26 0 0 Z " fill="#1406B4" transform="translate(154,130)"/>
<path d="M0 0 C6.79179762 4.79766015 10.94421696 12.34963006 12.375 20.5 C12.67982067 24.60757752 12.69968904 28.69504348 12.6875 32.8125 C12.70361328 33.88951172 12.71972656 34.96652344 12.73632812 36.07617188 C12.74293206 46.97926777 10.50365508 56.05246026 3.375 64.5 C-2.93820881 70.45038071 -10.19441088 72.01545413 -18.71875 71.8046875 C-25.72718902 71.0699318 -31.68197459 69.02602501 -36.5625 63.8125 C-46.39749892 51.1708707 -46.1822736 34.54535755 -44.35693359 19.25439453 C-42.89775008 11.19483071 -39.10840596 4.53060262 -32.625 -0.5 C-21.99964356 -6.26715512 -10.36912363 -6.13824375 0 0 Z " fill="#FCFCFD" transform="translate(322.625,186.5)"/>
<path d="M0 0 C4.95 0 9.9 0 15 0 C15.01458252 1.77044678 15.02916504 3.54089355 15.04418945 5.36499023 C15.09604048 11.24441179 15.16137919 17.12360234 15.23571491 23.00277615 C15.2802562 26.5639204 15.31954678 30.12495454 15.34643555 33.6862793 C15.37765655 37.78983669 15.43243778 41.89279699 15.48828125 45.99609375 C15.49467117 47.26206894 15.5010611 48.52804413 15.50764465 49.8323822 C15.55248231 60.94593636 15.55248231 60.94593636 20.41596985 70.61326599 C25.39647331 74.97343144 29.68070777 75.29920597 36.015625 75.20703125 C42.1757186 74.77969491 47.89602896 73.61711215 52.4375 69.1875 C60.83121497 57.1175301 58.55350302 38.56068593 58.6875 24.625 C58.72073054 22.23175279 58.75522533 19.83852279 58.79101562 17.4453125 C58.87525795 11.63030422 58.94237519 5.81533046 59 0 C63.62 0 68.24 0 73 0 C73 28.38 73 56.76 73 86 C69.04 86 65.08 86 61 86 C60.67 82.37 60.34 78.74 60 75 C59.34 75 58.68 75 58 75 C57.835 75.721875 57.67 76.44375 57.5 77.1875 C54.48359449 82.84326034 48.66154193 84.99027362 42.75 86.8125 C31.84860771 89.45114959 21.55972624 88.58928417 11.6875 83.1875 C4.63184606 77.44452586 1.2067271 70.94428031 0 62 C-0.08301288 59.87709919 -0.11786114 57.75196022 -0.11352539 55.62744141 C-0.11344986 54.38660797 -0.11337433 53.14577454 -0.11329651 51.86734009 C-0.10819113 50.52874714 -0.10297515 49.19015461 -0.09765625 47.8515625 C-0.09578906 46.47008312 -0.09436658 45.08860308 -0.09336853 43.7071228 C-0.08956702 40.08711897 -0.07975716 36.46715583 -0.06866455 32.84716797 C-0.05839935 29.14681549 -0.05386 25.44645639 -0.04882812 21.74609375 C-0.03813257 14.49737521 -0.02055516 7.24869851 0 0 Z " fill="#FDFDFB" transform="translate(227,34)"/>
<path d="M0 0 C4.72328348 2.1264575 7.52898477 5.27633803 9.41918945 10.02905273 C11.37814629 16.25485652 12.02402724 21.866229 11.9375 28.375 C11.94910156 29.24769531 11.96070313 30.12039063 11.97265625 31.01953125 C11.94271646 37.75598322 11.40066137 45.44618147 6.94946289 50.82373047 C1.8711875 55.63616326 -3.62824876 56.93032368 -10.5 57.1875 C-16.5738071 57.02210132 -20.3824546 55.20052917 -24.625 50.875 C-31.19098942 42.62012091 -31.11445852 31.9476759 -30.4375 21.875 C-29.36061884 12.98474775 -27.08985347 6.83531542 -20.05859375 1.07421875 C-14.69299628 -2.89503046 -6.10948975 -1.98587621 0 0 Z " fill="#05A414" transform="translate(241.4375,294.125)"/>
<path d="M0 0 C20.46 0 40.92 0 62 0 C62 3.63 62 7.26 62 11 C59.46699219 11.03867187 59.46699219 11.03867187 56.8828125 11.078125 C54.63018372 11.13444072 52.37758055 11.19178724 50.125 11.25 C49.01640625 11.26417969 47.9078125 11.27835937 46.765625 11.29296875 C39.16714316 11.51645351 31.45952839 12.29396649 25.38745117 17.34008789 C18.54106733 24.94844259 17.52670111 34.29108086 17.7265625 44.09375 C18.24015221 51.43074582 19.9732453 57.61598573 25.5625 62.625 C32.04494083 67.62037756 41.17980329 66.57782069 49 66 C52.85171072 65.27437651 56.27642755 64.25867238 60 63 C60 66.63 60 70.26 60 74 C49.1763456 79.78505666 38.11413671 80.71723192 26.1875 77.375 C17.27229474 74.28153119 11.82330678 70.08268101 7.25390625 61.765625 C1.85522165 49.85824589 1.41312122 37.4921273 5.51171875 25.13671875 C8.05467416 19.77715656 11.79516706 16.14299716 16 12 C10.72 11.67 5.44 11.34 0 11 C0 7.37 0 3.74 0 0 Z " fill="#EEFAEF" transform="translate(124,283)"/>
<path d="M0 0 C4.95 0 9.9 0 15 0 C15 28.38 15 56.76 15 86 C10.05 86 5.1 86 0 86 C0 57.62 0 29.24 0 0 Z " fill="#FDF8F0" transform="translate(187,34)"/>
<path d="M0 0 C5.19722049 4.5580462 8.28282129 9.33330619 10 16 C10 19.3 10 22.6 10 26 C-6.5 26 -23 26 -40 26 C-38.96462615 15.64626149 -37.72571259 9.09067372 -30.0625 2 C-21.98285694 -4.37077607 -8.97334904 -5.78239518 0 0 Z " fill="#F6F6FB" transform="translate(102,185)"/>
<path d="M0 0 C2.97 0 5.94 0 9 0 C9.09291665 11.43138152 9.16387479 22.86267233 9.20724869 34.29435539 C9.22807208 39.60327423 9.25629357 44.91193359 9.30175781 50.22070312 C9.34540305 55.34950414 9.36917653 60.47805648 9.37950897 65.60702896 C9.38686691 67.55814653 9.4012349 69.50925137 9.42292023 71.4602623 C9.632422 91.10032693 9.632422 91.10032693 5 99 C2.1875 98.875 2.1875 98.875 -1 98 C-2.9375 95.3125 -2.9375 95.3125 -4 92 C-3.85949219 91.1853125 -3.71898437 90.370625 -3.57421875 89.53125 C-2.74263012 84.41726279 -2.85580938 79.35937241 -2.875 74.1875 C-2.87113281 73.12595703 -2.86726562 72.06441406 -2.86328125 70.97070312 C-2.86521484 69.45959961 -2.86521484 69.45959961 -2.8671875 67.91796875 C-2.86831543 66.99781982 -2.86944336 66.0776709 -2.87060547 65.12963867 C-2.76285149 63.01617477 -2.76285149 63.01617477 -4 62 C-3.89985207 60.3827615 -3.73654621 58.76935319 -3.546875 57.16015625 C-2.95026596 51.20272634 -2.98517029 45.4122188 -3.25 39.4375 C-3.29060547 37.99213867 -3.29060547 37.99213867 -3.33203125 36.51757812 C-3.57489132 30.70852182 -4.45237406 25.67162202 -6.37011719 20.17602539 C-7 18 -7 18 -7 14 C-5.09316578 11.548356 -4.02015057 11.00671686 -1 10 C-0.67 6.7 -0.34 3.4 0 0 Z " fill="#FAFDFA" transform="translate(256,284)"/>
<path d="M0 0 C0.51355752 9.10138056 0.57167816 17.53713394 -5.54296875 24.84375 C-12.22604455 31.08332649 -19.24681083 32.53807713 -28.22265625 32.2890625 C-32.83421104 31.80909759 -35.71921586 30.41327905 -38.8125 27 C-41.46712572 22.52905141 -41.605846 18.05448659 -41 13 C-38.570919 7.85034828 -35.16376444 5.19036729 -30 3 C-20.25729497 -0.08518993 -10.14308907 -0.17657215 0 0 Z " fill="#DA8725" transform="translate(147,78)"/>
<path d="M0 0 C1.32 0 2.64 0 4 0 C3.67 0.99 3.34 1.98 3 3 C2.88011328 5.66096726 2.81469648 8.29774859 2.79467773 10.9597168 C2.78477814 11.76970123 2.77487854 12.57968567 2.76467896 13.41421509 C2.73308191 16.09251987 2.7083136 18.77084239 2.68359375 21.44921875 C2.66302267 23.30581626 2.64202616 25.16240911 2.62062073 27.01899719 C2.56541593 31.90650656 2.5159996 36.79405808 2.46777344 41.68164062 C2.41754682 46.66865798 2.3618668 51.65561408 2.30664062 56.64257812 C2.19907851 66.4283331 2.09762918 76.21414124 2 86 C2.66 86 3.32 86 4 86 C3.34 87.32 2.68 88.64 2 90 C50.51 90.495 50.51 90.495 100 91 C100 91.66 100 92.32 100 93 C-32 93 -164 93 -300 93 C-300 92.67 -300 92.34 -300 92 C-299.45559871 91.99826375 -298.91119742 91.9965275 -298.35029912 91.99473864 C-266.10059068 91.89176026 -233.85090408 91.78365853 -201.60123558 91.66888306 C-197.73090198 91.65511311 -193.86056823 91.64138607 -189.99023438 91.62768555 C-189.21970501 91.62495724 -188.44917564 91.62222894 -187.65529689 91.61941796 C-175.17114484 91.57531621 -162.68698377 91.53469177 -150.20281592 91.49534739 C-137.39748225 91.45491362 -124.59216535 91.41075466 -111.78685641 91.36312145 C-103.88225851 91.33383581 -95.97766187 91.30747252 -88.07304212 91.28482103 C-82.0166773 91.26715502 -75.96034342 91.24431173 -69.90400314 91.21950912 C-67.41590074 91.21013699 -64.9277913 91.20246229 -62.43967819 91.19658089 C-59.05164872 91.18832254 -55.66369711 91.17404646 -52.2756958 91.15821838 C-51.28348251 91.15724028 -50.29126921 91.15626217 -49.26898885 91.15525442 C-48.3623086 91.14977998 -47.45562834 91.14430554 -46.52147293 91.1386652 C-45.73924905 91.13600716 -44.95702517 91.13334911 -44.15109754 91.13061053 C-41.98667769 90.99919109 -40.08069624 90.59526661 -38 90 C-39.98 89.67 -41.96 89.34 -44 89 C-44 88.67 -44 88.34 -44 88 C-42.9378125 87.82984375 -41.875625 87.6596875 -40.78125 87.484375 C-33.19847547 86.20638936 -26.708295 84.94605588 -20 81 C-18.515 80.505 -18.515 80.505 -17 80 C-15.78130071 77.49552484 -15.78130071 77.49552484 -15 75 C-14.34 75 -13.68 75 -13 75 C-12.67 78.63 -12.34 82.26 -12 86 C-8.04 86 -4.08 86 0 86 C0 57.62 0 29.24 0 0 Z " fill="#C9893E" transform="translate(300,34)"/>
<path d="M0 0 C7.67536627 -0.02312821 15.35072896 -0.04091753 23.02612209 -0.05181217 C26.58977422 -0.05703995 30.15340257 -0.06413569 33.71704102 -0.07543945 C37.81006097 -0.08834176 41.9030558 -0.09322906 45.99609375 -0.09765625 C47.92418129 -0.10539818 47.92418129 -0.10539818 49.89122009 -0.11329651 C51.66294334 -0.11340981 51.66294334 -0.11340981 53.47045898 -0.11352539 C55.03932106 -0.11685631 55.03932106 -0.11685631 56.63987732 -0.12025452 C59 0 59 0 60 1 C60.14115161 3.67058851 60.04247107 6.32432238 60 9 C59.18732666 9.02505615 58.37465332 9.0501123 57.53735352 9.07592773 C53.87889248 9.19149118 50.22071472 9.31439584 46.5625 9.4375 C45.28310547 9.47681641 44.00371094 9.51613281 42.68554688 9.55664062 C40.86313477 9.61948242 40.86313477 9.61948242 39.00390625 9.68359375 C37.87799072 9.72025146 36.7520752 9.75690918 35.59204102 9.79467773 C33.07146559 9.71218045 33.07146559 9.71218045 32 11 C30.33382885 11.04063832 28.66611905 11.042721 27 11 C27 11.66 27 12.32 27 13 C26.360625 13.103125 25.72125 13.20625 25.0625 13.3125 C24.381875 13.539375 23.70125 13.76625 23 14 C22.67 14.99 22.34 15.98 22 17 C20.68 16.34 19.36 15.68 18 15 C18 13.35 18 11.7 18 10 C12.06 9.67 6.12 9.34 0 9 C0 6.03 0 3.06 0 0 Z " fill="#FAFDFA" transform="translate(125,284)"/>
<path d="M0 0 C-1.485 0.99 -1.485 0.99 -3 2 C-2.34 2.66 -1.68 3.32 -1 4 C-108.25 4 -215.5 4 -326 4 C-326 3.67 -326 3.34 -326 3 C-324.98174637 2.98969254 -323.96349274 2.97938507 -322.91438293 2.96876526 C-313.22293766 2.87014635 -303.53154413 2.7673461 -293.84018421 2.66066074 C-288.8601903 2.60596825 -283.88019029 2.55264702 -278.90014648 2.50268555 C-274.07602063 2.45423407 -269.25195014 2.40188584 -264.42789268 2.34705925 C-262.60593774 2.32699416 -260.78396787 2.30823216 -258.96198463 2.29092598 C-249.22370725 2.197508 -239.50128219 1.99016943 -229.7722168 1.54272461 C-228.925687 1.50469254 -228.0791572 1.46666048 -227.20697498 1.42747593 C-222.36088218 1.18677046 -217.61829968 0.74078568 -212.820508 0.00435734 C-212.21974036 0.00291942 -211.61897272 0.00148149 -211 0 C-210.01 0.99 -210.01 0.99 -209 2 C-205.96935946 2.30601069 -205.96935946 2.30601069 -202.33927917 2.25396729 C-201.30070179 2.25864726 -201.30070179 2.25864726 -200.24114305 2.26342177 C-197.90961874 2.27143037 -195.57835265 2.26506705 -193.24682617 2.25878906 C-191.57978665 2.26149773 -189.91274832 2.26505797 -188.24571228 2.26940918 C-183.70841994 2.27855232 -179.17121823 2.27498047 -174.63392425 2.26865101 C-169.89033111 2.26359843 -165.1467459 2.26828062 -160.40315247 2.27142334 C-152.43273522 2.27506622 -144.46235499 2.27025657 -136.49194336 2.26074219 C-127.27613483 2.2498682 -118.06041485 2.25337423 -108.84460849 2.264395 C-100.93796601 2.27347206 -93.03135019 2.27475075 -85.12470418 2.26951766 C-80.40006358 2.26639883 -75.67546458 2.26598601 -70.95082664 2.27259064 C-66.50624133 2.27836915 -62.06177004 2.27435788 -57.61719704 2.26280212 C-55.98577692 2.26015777 -54.35434721 2.2609168 -52.72293091 2.26532745 C-50.49571502 2.27079352 -48.26886438 2.26393594 -46.04167175 2.25396729 C-44.7952399 2.25321323 -43.54880804 2.25245918 -42.26460552 2.25168228 C-39.06947069 2.00535579 -36.90469463 1.27687743 -34 0 C-31.96777344 0.36450195 -31.96777344 0.36450195 -30 1 C-26.75271669 1.21807377 -23.50391829 1.18512834 -20.25 1.1875 C-19.38117188 1.19974609 -18.51234375 1.21199219 -17.6171875 1.22460938 C-13.3848491 1.23414167 -9.583814 1.02655654 -5.484375 -0.07421875 C-2 -1 -2 -1 0 0 Z " fill="#E5FEEB" transform="translate(326,268)"/>
<path d="M0 0 C0 2.64 0 5.28 0 8 C-1.43429001 8.67354499 -2.87257057 9.33859701 -4.3125 10 C-5.51326172 10.556875 -5.51326172 10.556875 -6.73828125 11.125 C-9 12 -9 12 -12 12 C-12 12.66 -12 13.32 -12 14 C-21.24 14 -30.48 14 -40 14 C-40 13.34 -40 12.68 -40 12 C-40.99 11.67 -41.98 11.34 -43 11 C-43 10.34 -43 9.68 -43 9 C-41.68 8.67 -40.36 8.34 -39 8 C-39.66 6.68 -40.32 5.36 -41 4 C-36.70834738 3.97108051 -32.41671964 3.95322882 -28.125 3.9375 C-26.29001953 3.92493164 -26.29001953 3.92493164 -24.41796875 3.91210938 C-22.66806641 3.90727539 -22.66806641 3.90727539 -20.8828125 3.90234375 C-19.26463623 3.89448853 -19.26463623 3.89448853 -17.61376953 3.88647461 C-15 4 -15 4 -13 5 C-13 4.01 -13 3.02 -13 2 C-11.02 2 -9.04 2 -7 2 C-7 1.34 -7 0.68 -7 0 C-3.98968256 -0.93423645 -3.13349732 -1.04449911 0 0 Z " fill="#1305B5" transform="translate(123,255)"/>
<path d="M0 0 C4.95 0 9.9 0 15 0 C15.01458252 1.77044678 15.02916504 3.54089355 15.04418945 5.36499023 C15.09604048 11.24441179 15.16137919 17.12360234 15.23571491 23.00277615 C15.2802562 26.5639204 15.31954678 30.12495454 15.34643555 33.6862793 C15.37765655 37.78983669 15.43243778 41.89279699 15.48828125 45.99609375 C15.49467117 47.26206894 15.5010611 48.52804413 15.50764465 49.8323822 C15.55248231 60.94593636 15.55248231 60.94593636 20.41596985 70.61326599 C25.39647331 74.97343144 29.68070777 75.29920597 36.015625 75.20703125 C42.1757186 74.77969491 47.89602896 73.61711215 52.4375 69.1875 C56.3884105 64.01661997 57.00885579 57.26855242 58 51 C58.33 51 58.66 51 59 51 C59.09038099 56.15171623 58.84681133 60.91913204 58 66 C57.34 66 56.68 66 56 66 C56.77030122 69.48809191 56.77030122 69.48809191 58 73 C58.99 73.33 59.98 73.66 61 74 C61 76.31 61 78.62 61 81 C60.67 81 60.34 81 60 81 C60 79.02 60 77.04 60 75 C59.34 75 58.68 75 58 75 C57.835 75.721875 57.67 76.44375 57.5 77.1875 C55.38449665 81.15406879 52.13290679 83.28136549 48 85 C47.01 84.67 46.02 84.34 45 84 C45 82.68 45 81.36 45 80 C45.66 80 46.32 80 47 80 C47 78.68 47 77.36 47 76 C46.01 76.33 45.02 76.66 44 77 C41.07039543 77.14935239 38.18027379 77.2311558 35.25 77.25 C34.46367187 77.270625 33.67734375 77.29125 32.8671875 77.3125 C27.48053405 77.34829172 23.76540942 76.55749772 19 74 C14.9738245 68.8631554 13.7467545 63.04514755 13.77294922 56.62744141 C13.77317581 54.76619125 13.77317581 54.76619125 13.77340698 52.86734009 C13.78361775 51.52874589 13.7940497 50.19015337 13.8046875 48.8515625 C13.80842187 47.47008469 13.81126684 46.08860422 13.81326294 44.7071228 C13.82086608 41.08706229 13.84048563 37.46716457 13.8626709 33.84716797 C13.88320122 30.14683229 13.89227996 26.44647008 13.90234375 22.74609375 C13.92373504 15.49731335 13.95888967 8.24870031 14 1 C9.71 1 5.42 1 1 1 C1 21.13 1 41.26 1 62 C0.67 62 0.34 62 0 62 C0 41.54 0 21.08 0 0 Z " fill="#FAE6CF" transform="translate(227,34)"/>
<path d="M0 0 C8.56674915 -0.33328851 15.95073076 -0.11584616 24 3 C24 3.66 24 4.32 24 5 C23.01 5.33 22.02 5.66 21 6 C21.99 6.33 22.98 6.66 24 7 C23.34 8.32 22.68 9.64 22 11 C21.26362305 10.99476318 20.52724609 10.98952637 19.76855469 10.98413086 C16.42904515 10.96333133 13.08954926 10.95033032 9.75 10.9375 C8.59113281 10.92912109 7.43226562 10.92074219 6.23828125 10.91210938 C5.12324219 10.90888672 4.00820312 10.90566406 2.859375 10.90234375 C1.83295898 10.89710693 0.80654297 10.89187012 -0.25097656 10.88647461 C-2.93126197 10.89968723 -2.93126197 10.89968723 -5.17871094 11.56860352 C-7 12 -7 12 -10 11 C-10 12.32 -10 13.64 -10 15 C-10.99 15.33 -11.98 15.66 -13 16 C-13.66 14.68 -14.32 13.36 -15 12 C-15.33 12.66 -15.66 13.32 -16 14 C-16 13.34 -16 12.68 -16 12 C-16.66 11.67 -17.32 11.34 -18 11 C-17.401875 10.7525 -16.80375 10.505 -16.1875 10.25 C-13.67317153 8.81324088 -12.59509235 7.39263852 -11 5 C-10.34 4.01 -9.68 3.02 -9 2 C-7.6078125 2.2784375 -7.6078125 2.2784375 -6.1875 2.5625 C-2.98656229 3.24123881 -2.98656229 3.24123881 0 2 C0 1.34 0 0.68 0 0 Z " fill="#1305B6" transform="translate(83,171)"/>
<path d="M0 0 C0 3.63 0 7.26 0 11 C-5.90018235 14.99994569 -11.96081772 14.33967444 -18.875 14.1875 C-20.0403125 14.17396484 -21.205625 14.16042969 -22.40625 14.14648438 C-25.27131118 14.11125821 -28.13541377 14.06199715 -31 14 C-31.33 13.01 -31.66 12.02 -32 11 C-33.65 11 -35.3 11 -37 11 C-36.34 10.67 -35.68 10.34 -35 10 C-35.185625 9.4225 -35.37125 8.845 -35.5625 8.25 C-36.04023546 5.79307475 -35.75729364 4.35602466 -35 2 C-34.01 2.66 -33.02 3.32 -32 4 C-29.28924456 4.36798693 -29.28924456 4.36798693 -26.23828125 4.4140625 C-25.12001953 4.45273437 -24.00175781 4.49140625 -22.84960938 4.53125 C-21.68236328 4.5621875 -20.51511719 4.593125 -19.3125 4.625 C-18.13365234 4.66367187 -16.95480469 4.70234375 -15.74023438 4.7421875 C-12.82698023 4.83654391 -9.91373393 4.92213161 -7 5 C-7 4.34 -7 3.68 -7 3 C-2.61538462 0 -2.61538462 0 0 0 Z " fill="#F9FDF8" transform="translate(184,346)"/>
<path d="M0 0 C81.18 0 162.36 0 246 0 C246 0.33 246 0.66 246 1 C172.08 1.33 98.16 1.66 22 2 C21.67 2.99 21.34 3.98 21 5 C19.35 5.33 17.7 5.66 16 6 C16 20.19 16 34.38 16 49 C15.67 49 15.34 49 15 49 C14.67 33.49 14.34 17.98 14 2 C7.07 1.505 7.07 1.505 0 1 C0 0.67 0 0.34 0 0 Z " fill="#FFFDF0" transform="translate(154,128)"/>
<path d="M0 0 C4.95 0 9.9 0 15 0 C15 17.16 15 34.32 15 52 C14.67 52 14.34 52 14 52 C14 35.17 14 18.34 14 1 C9.71 1 5.42 1 1 1 C1.33 45.88 1.66 90.76 2 137 C5.96 137.33 9.92 137.66 14 138 C13.9592334 136.25460937 13.9184668 134.50921875 13.87646484 132.7109375 C13.74375719 126.91965414 13.62112009 121.12820364 13.50522423 115.33656311 C13.43464913 111.82789803 13.36013677 108.31941199 13.27636719 104.81103516 C13.18005831 100.77004968 13.10134208 96.7288825 13.0234375 92.6875 C12.99124115 91.4382373 12.9590448 90.18897461 12.9258728 88.90185547 C12.81712139 82.53683048 13.0635138 77.0804345 15 71 C15.66 71 16.32 71 17 71 C16.89722496 71.95541435 16.89722496 71.95541435 16.79237366 72.93013 C16.03736984 80.4731105 15.79000476 87.96585723 15.68359375 95.54296875 C15.66281265 96.79257889 15.64203156 98.04218903 15.62062073 99.32966614 C15.56674907 102.61252258 15.51637385 105.89540685 15.46777344 109.17834473 C15.41705947 112.54407515 15.36163698 115.90972793 15.30664062 119.27539062 C15.20014373 125.85019978 15.09870171 132.42506939 15 139 C10.05 139 5.1 139 0 139 C0 93.13 0 47.26 0 0 Z " fill="#170A8F" transform="translate(154,130)"/>
<path d="M0 0 C-3.724603 1.24153433 -4.47752269 0.47452539 -8 -1 C-17.23939654 -3.09986285 -26.08662733 -2.13451456 -35 1 C-36.35269202 1.97365398 -37.69097493 2.96838421 -39 4 C-39.66 4 -40.32 4 -41 4 C-41 4.66 -41 5.32 -41 6 C-41.66 6 -42.32 6 -43 6 C-43 6.66 -43 7.32 -43 8 C-42.2471875 7.9278125 -41.494375 7.855625 -40.71875 7.78125 C-31.78710627 7.00081511 -22.95475123 6.89654331 -14 7 C-14 7.66 -14 8.32 -14 9 C-11.03 9.33 -8.06 9.66 -5 10 C-4 13 -4 13 -4 16 C-6.16285052 14.9958194 -7.96863754 14.02595514 -9.8125 12.5 C-15.51759264 8.58793648 -22.31816151 8.33380479 -29 9 C-32.42684966 9.77203735 -35.69431252 10.81981673 -39 12 C-40.485 12.4640625 -40.485 12.4640625 -42 12.9375 C-44.53276083 14.28302919 -44.81922017 15.42333705 -46 18 C-47.33333333 20.66666667 -48.66666667 23.33333333 -50 26 C-50.33 25.01 -50.66 24.02 -51 23 C-51.99 22.67 -52.98 22.34 -54 22 C-53.34 22 -52.68 22 -52 22 C-51.67 21.34 -51.34 20.68 -51 20 C-51.33 19.01 -51.66 18.02 -52 17 C-52 9.1521197 -52 9.1521197 -49.43359375 6.1953125 C-36.18424287 -5.8872658 -16.0682225 -8.0882738 0 0 Z " fill="#180BA2" transform="translate(222,174)"/>
<path d="M0 0 C4.43024874 0.87022743 5.91370196 2.00398461 8.5 5.6875 C9.07167363 9.68921543 8.86938628 11.91514686 7.125 15.5625 C5.5 17.6875 5.5 17.6875 3.5 18.6875 C-2.76519337 19.2676105 -2.76519337 19.2676105 -5.875 16.8125 C-8.56616678 13.2932819 -9.01242464 11.12851354 -8.5 6.6875 C-6.01226057 2.61665367 -4.74265759 0.93159346 0 0 Z " fill="#FCF8EF" transform="translate(194.5,1.3125)"/>
<path d="M0 0 C11.09382244 2.75389668 17.97069673 7.60598761 25.08203125 16.5 C23.76203125 16.83 22.44203125 17.16 21.08203125 17.5 C21.08203125 16.18 21.08203125 14.86 21.08203125 13.5 C20.42203125 13.5 19.76203125 13.5 19.08203125 13.5 C18.58703125 12.51 18.58703125 12.51 18.08203125 11.5 C15.77203125 11.5 13.46203125 11.5 11.08203125 11.5 C10.75203125 13.48 10.42203125 15.46 10.08203125 17.5 C11.73203125 17.5 13.38203125 17.5 15.08203125 17.5 C15.08203125 18.49 15.08203125 19.48 15.08203125 20.5 C14.42203125 20.5 13.76203125 20.5 13.08203125 20.5 C13.57703125 22.975 13.57703125 22.975 14.08203125 25.5 C13.42203125 25.5 12.76203125 25.5 12.08203125 25.5 C10.75 23.85546875 10.75 23.85546875 9.26953125 21.6875 C5.90299441 17.05134465 2.72757278 14.64909252 -2.91796875 13.5 C-10.49538331 12.92977488 -16.90607687 13.52525799 -23.91796875 16.5 C-23.91796875 15.18 -23.91796875 13.86 -23.91796875 12.5 C-16.2007803 11.0481411 -8.45701781 11.51222746 -0.63867188 11.71484375 C0.99618164 11.73611328 0.99618164 11.73611328 2.6640625 11.7578125 C4.15256714 11.79092529 4.15256714 11.79092529 5.67114258 11.82470703 C6.46673584 11.71755371 7.2623291 11.61040039 8.08203125 11.5 C8.74203125 10.51 9.40203125 9.52 10.08203125 8.5 C8.76203125 8.17 7.44203125 7.84 6.08203125 7.5 C7.40203125 7.17 8.72203125 6.84 10.08203125 6.5 C10.08203125 5.84 10.08203125 5.18 10.08203125 4.5 C8.80328125 4.355625 7.52453125 4.21125 6.20703125 4.0625 C3.82510231 3.79357254 2.23750434 3.57773654 0.08203125 2.5 C-1.29143225 2.34995027 -2.67082135 2.25161994 -4.05078125 2.18359375 C-4.85644531 2.14169922 -5.66210938 2.09980469 -6.4921875 2.05664062 C-7.33394531 2.01732422 -8.17570312 1.97800781 -9.04296875 1.9375 C-9.89246094 1.89431641 -10.74195312 1.85113281 -11.6171875 1.80664062 C-13.71725098 1.70045764 -15.81758823 1.59971503 -17.91796875 1.5 C-12.63481383 -2.02210328 -6.09453371 -1.044311 0 0 Z " fill="#2315A9" transform="translate(96.91796875,169.5)"/>
<path d="M0 0 C0.33 0 0.66 0 1 0 C1 3.96 1 7.92 1 12 C9.80825866 14.53672495 17.60711987 15.44047984 26.75 15.3125 C27.91660156 15.31572266 29.08320313 15.31894531 30.28515625 15.32226562 C36.53254008 15.28335214 42.02422504 14.84719152 48 13 C44.777893 16.8665284 41.85077588 17.88059018 37 19 C40.20062687 20.60031344 42.72271806 19.03173691 46 18 C45.67 18.66 45.34 19.32 45 20 C44.34 20 43.68 20 43 20 C43 20.66 43 21.32 43 22 C34.42 22 25.84 22 17 22 C19.92264434 20.53867783 21.92463146 19.65900754 25 19 C15.79307538 18.60195155 15.79307538 18.60195155 7 21 C6 18 6 18 7 15 C5.906875 14.896875 4.81375 14.79375 3.6875 14.6875 C0 14 0 14 -1.9375 12.625 C-3 11 -3 11 -3 8 C-2.34 8 -1.68 8 -1 8 C-1.020625 6.865625 -1.04125 5.73125 -1.0625 4.5625 C-1 1 -1 1 0 0 Z " fill="#07A316" transform="translate(203,378)"/>
<path d="M0 0 C5.09593044 2.47075415 8.74336862 6.43896519 12 11 C12.703125 13.25390625 12.703125 13.25390625 13 15 C7.33846154 13.52307692 7.33846154 13.52307692 5.625 10.875 C5.41875 10.25625 5.2125 9.6375 5 9 C4.01 9 3.02 9 2 9 C2.350625 9.78375 2.70125 10.5675 3.0625 11.375 C4.11680094 15.45163032 3.84893153 18.41425978 3.2890625 22.53515625 C2.99452902 25.04665118 2.9549694 27.4737836 3 30 C1.84716759 27.7430464 0.76765868 25.47705219 -0.26171875 23.16015625 C-3.29432191 16.57151433 -5.6215841 12.5719129 -12 9 C-10.1875 8.375 -10.1875 8.375 -8 8 C-7.01 8.66 -6.02 9.32 -5 10 C-4.21625 9.34 -3.4325 8.68 -2.625 8 C0 6 0 6 2 6 C1.67 5.34 1.34 4.68 1 4 C-2.02934491 3.34227572 -2.02934491 3.34227572 -5 3 C-4.34 2.34 -3.68 1.68 -3 1 C-2.01 1.33 -1.02 1.66 0 2 C0 1.34 0 0.68 0 0 Z " fill="#180BAB" transform="translate(332,177)"/>
<path d="M0 0 C1.32 0 2.64 0 4 0 C3.67 0.99 3.34 1.98 3 3 C2.88011328 5.66096726 2.81469648 8.29774859 2.79467773 10.9597168 C2.78477814 11.76970123 2.77487854 12.57968567 2.76467896 13.41421509 C2.73308191 16.09251987 2.7083136 18.77084239 2.68359375 21.44921875 C2.66302267 23.30581626 2.64202616 25.16240911 2.62062073 27.01899719 C2.56541593 31.90650656 2.5159996 36.79405808 2.46777344 41.68164062 C2.41754682 46.66865798 2.3618668 51.65561408 2.30664062 56.64257812 C2.19907851 66.4283331 2.09762918 76.21414124 2 86 C1.34 86 0.68 86 0 86 C0 57.62 0 29.24 0 0 Z " fill="#DF9C61" transform="translate(300,34)"/>
<path d="M0 0 C4.95 0 9.9 0 15 0 C15 1.32 15 2.64 15 4 C32.49 4.33 49.98 4.66 68 5 C68 5.33 68 5.66 68 6 C20.81 6 -26.38 6 -75 6 C-75 5.67 -75 5.34 -75 5 C-46.62 4.67 -18.24 4.34 11 4 C11 3.34 11 2.68 11 2 C7.37 1.67 3.74 1.34 0 1 C0 0.67 0 0.34 0 0 Z " fill="#D18833" transform="translate(187,120)"/>
<path d="M0 0 C4.62 0 9.24 0 14 0 C14 28.38 14 56.76 14 86 C10.04 86 6.08 86 2 86 C2.33 85.01 2.66 84.02 3 83 C3 83.66 3 84.32 3 85 C6.3 85 9.6 85 13 85 C13 58.27 13 31.54 13 4 C12.01 3.67 11.02 3.34 10 3 C10 2.67 10 2.34 10 2 C7.36 1.67 4.72 1.34 2 1 C1.67 16.51 1.34 32.02 1 48 C0.67 48 0.34 48 0 48 C0 32.16 0 16.32 0 0 Z " fill="#FEF2DE" transform="translate(286,34)"/>
<path d="M0 0 C0 0.66 0 1.32 0 2 C-5.77156038 3.98911307 -10.86242741 4.2451155 -16.9375 4.125 C-17.81212891 4.11597656 -18.68675781 4.10695313 -19.58789062 4.09765625 C-21.72538064 4.0742957 -23.86272786 4.03843247 -26 4 C-25.505 5.485 -25.505 5.485 -25 7 C-61.3 7 -97.6 7 -135 7 C-135 6.67 -135 6.34 -135 6 C-99.69 5.67 -64.38 5.34 -28 5 C-27.67 3.68 -27.34 2.36 -27 1 C-26.2575 1.165 -25.515 1.33 -24.75 1.5 C-15.84536671 2.68728444 -8.38766002 0 0 0 Z " fill="#CF8A38" transform="translate(135,119)"/>
<path d="M0 0 C20.46 0.33 40.92 0.66 62 1 C62.495 1.99 62.495 1.99 63 3 C42.54 3 22.08 3 1 3 C1 6.63 1 10.26 1 14 C0.67 14 0.34 14 0 14 C0 10.7 0 7.4 0 4 C-0.66 4 -1.32 4 -2 4 C-2 3.34 -2 2.68 -2 2 C-1.34 2 -0.68 2 0 2 C0 1.34 0 0.68 0 0 Z " fill="#199623" transform="translate(123,280)"/>
<path d="M0 0 C0 4.62 0 9.24 0 14 C-9.10714286 17.34821429 -9.10714286 17.34821429 -13 16 C-11.3767313 15.3291288 -9.75132422 14.66342971 -8.125 14 C-7.22007813 13.62875 -6.31515625 13.2575 -5.3828125 12.875 C-3 12 -3 12 -1 12 C-1 9.36 -1 6.72 -1 4 C-3.31 4 -5.62 4 -8 4 C-8 4.66 -8 5.32 -8 6 C-9.98 6 -11.96 6 -14 6 C-14 6.99 -14 7.98 -14 9 C-23.9 9 -33.8 9 -44 9 C-43.67 8.01 -43.34 7.02 -43 6 C-43.66 6 -44.32 6 -45 6 C-45 5.34 -45 4.68 -45 4 C-44.37867187 4.15855469 -43.75734375 4.31710938 -43.1171875 4.48046875 C-27.25709137 7.12381811 -14.56148142 0 0 0 Z " fill="#1E129C" transform="translate(124,251)"/>
<path d="M0 0 C0.33 0 0.66 0 1 0 C1 20.13 1 40.26 1 61 C-3.62 61 -8.24 61 -13 61 C-13 59.68 -13 58.36 -13 57 C-14.98 56.67 -16.96 56.34 -19 56 C-19.66 56.99 -20.32 57.98 -21 59 C-23.625 59.1875 -23.625 59.1875 -26 59 C-25.319375 58.484375 -24.63875 57.96875 -23.9375 57.4375 C-20.39657527 54.49928587 -17.20890181 51.29212981 -14 48 C-11.2884971 52.06725434 -11.42132512 55.1547611 -11 60 C-7.37 60 -3.74 60 0 60 C0 40.2 0 20.4 0 0 Z " fill="#CA8E49" transform="translate(161,60)"/>
<path d="M0 0 C3.63 0 7.26 0 11 0 C11 28.38 11 56.76 11 86 C10.67 86 10.34 86 10 86 C10 57.95 10 29.9 10 1 C7.03 1 4.06 1 1 1 C1 4.3 1 7.6 1 11 C-0.32 11.33 -1.64 11.66 -3 12 C-3.99 10.68 -4.98 9.36 -6 8 C-5.67 7.34 -5.34 6.68 -5 6 C-4.01 6.99 -3.02 7.98 -2 9 C-1.34 6.03 -0.68 3.06 0 0 Z " fill="#D0FBD6" transform="translate(255,283)"/>
<path d="M0 0 C17.82 0 35.64 0 54 0 C54 0.33 54 0.66 54 1 C38.16 1.495 38.16 1.495 22 2 C21.67 2.99 21.34 3.98 21 5 C19.35 5.33 17.7 5.66 16 6 C16 20.19 16 34.38 16 49 C15.67 49 15.34 49 15 49 C14.67 33.49 14.34 17.98 14 2 C7.07 1.505 7.07 1.505 0 1 C0 0.67 0 0.34 0 0 Z " fill="#D8D4F0" transform="translate(154,128)"/>
<path d="M0 0 C5.02910559 5.94348842 4 12.37545667 4 20 C-8.375 20.495 -8.375 20.495 -21 21 C-21 20.67 -21 20.34 -21 20 C-16.26120232 18.85149303 -11.53708638 18.67098443 -6.6875 18.4375 C-5.85154297 18.39431641 -5.01558594 18.35113281 -4.15429688 18.30664062 C-2.10303065 18.20114693 -0.0515352 18.10012685 2 18 C2 14.37 2 10.74 2 7 C1.34 7 0.68 7 0 7 C-0.04125 6.236875 -0.0825 5.47375 -0.125 4.6875 C-0.76138971 1.76571654 -0.76138971 1.76571654 -3.59375 0.34765625 C-7.4538217 -1.17955102 -10.23800049 -1.33529896 -14.375 -1.25 C-15.68339844 -1.22421875 -16.99179688 -1.1984375 -18.33984375 -1.171875 C-22.28995995 -0.98638395 -26.09960174 -0.63679972 -30 0 C-20.78526761 -6.14315492 -9.40545712 -5.56023185 0 0 Z " fill="#D09A5B" transform="translate(143,48)"/>
<path d="M0 0 C0.66 0 1.32 0 2 0 C4.60038374 4.51469485 5.36952533 7.73179029 5.34057617 12.92333984 C5.34101425 13.5874588 5.34145233 14.25157776 5.34190369 14.93582153 C5.33982875 17.1111688 5.31656086 19.2857264 5.29296875 21.4609375 C5.28736814 22.9769346 5.28310024 24.49293716 5.28010559 26.00894165 C5.26869329 29.98418368 5.23925776 33.95909288 5.20599365 37.9342041 C5.17521441 41.99645486 5.16158353 46.0587598 5.14648438 50.12109375 C5.11438413 58.0808813 5.06323213 66.04039915 5 74 C3.02 74.495 3.02 74.495 1 75 C1.99 74.505 1.99 74.505 3 74 C2.91500081 66.27094848 2.81989723 58.54208979 2.71247292 50.81332111 C2.66287741 47.22316027 2.61654981 43.63302376 2.578125 40.04272461 C2.54080081 36.56717867 2.49432556 33.09185689 2.44193649 29.61650658 C2.41483553 27.66883671 2.39681382 25.72104714 2.37905884 23.77326965 C2.24751615 15.69466152 1.44306839 7.94989174 0 0 Z " fill="#D28830" transform="translate(159,47)"/>
<path d="M0 0 C0.66 0.66 1.32 1.32 2 2 C1.94140625 4.56640625 1.94140625 4.56640625 1.5625 7.5625 C1.33909247 9.37092516 1.1428757 11.18343758 1 13 C1.33 13.33 1.66 13.66 2 14 C2.31038255 17.67878237 2.27860306 21.37225304 2.3125 25.0625 C2.34150391 26.08794922 2.37050781 27.11339844 2.40039062 28.16992188 C2.45669025 34.93886871 1.52913085 39.20164498 -2 45 C-2.66 44.67 -3.32 44.34 -4 44 C-3.34 43.030625 -2.68 42.06125 -2 41.0625 C1.45768763 34.354099 0.29962241 26.32410339 0 19 C-1.32 19.99 -2.64 20.98 -4 22 C-3.67 20.02 -3.34 18.04 -3 16 C-4.1446875 16.556875 -4.1446875 16.556875 -5.3125 17.125 C-6.199375 17.41375 -7.08625 17.7025 -8 18 C-8.99 17.34 -9.98 16.68 -11 16 C-10.071875 15.4225 -9.14375 14.845 -8.1875 14.25 C-2.44189344 10.19427772 -1.44447707 6.66681726 0 0 Z " fill="#D8F8DC" transform="translate(252,333)"/>
<path d="M0 0 C0.33 0 0.66 0 1 0 C1 1.65 1 3.3 1 5 C0.38125 5.185625 -0.2375 5.37125 -0.875 5.5625 C-4.01922836 7.68947801 -4.02930172 10.44077298 -5 14 C-5.99 14.33 -6.98 14.66 -8 15 C-8 16.32 -8 17.64 -8 19 C-11 21 -11 21 -13.1875 20.625 C-14.0846875 20.315625 -14.0846875 20.315625 -15 20 C-15.66 21.32 -16.32 22.64 -17 24 C-17 23.34 -17 22.68 -17 22 C-18.65 22.33 -20.3 22.66 -22 23 C-21.26910156 22.43796875 -20.53820312 21.8759375 -19.78515625 21.296875 C-12.89575236 15.61529087 -7.50173501 9.2214648 -4 1 C-3.34 1.66 -2.68 2.32 -2 3 C-1.34 2.01 -0.68 1.02 0 0 Z " fill="#F3F5F5" transform="translate(351,243)"/>
<path d="M0 0 C0.33 0.66 0.66 1.32 1 2 C2.65 2 4.3 2 6 2 C6.66 3.65 7.32 5.3 8 7 C7.236875 7.28875 6.47375 7.5775 5.6875 7.875 C2.84970692 8.96269013 2.84970692 8.96269013 0 11 C3.3 11.33 6.6 11.66 10 12 C9.67 13.98 9.34 15.96 9 18 C8.67 17.01 8.34 16.02 8 15 C6.01432292 14.8046875 4.02864583 14.609375 2.04296875 14.4140625 C0 14 0 14 -3 12 C-4.1875 8.875 -4.1875 8.875 -5 6 C-4.01 5.34 -3.02 4.68 -2 4 C-0.80767387 1.94996045 -0.80767387 1.94996045 0 0 Z " fill="#1406BA" transform="translate(62,246)"/>
<path d="M0 0 C0 0.99 0 1.98 0 3 C-1.6396875 3.2165625 -1.6396875 3.2165625 -3.3125 3.4375 C-5.29225528 3.8960827 -5.29225528 3.8960827 -7 5 C-8.10470241 7.18330949 -8.66877314 9.22830061 -9.19921875 11.61328125 C-10 14 -10 14 -12.0625 16.19921875 C-14.86442168 20.24957731 -14.4779384 23.69860996 -14.3125 28.5 C-14.30283203 29.34175781 -14.29316406 30.18351562 -14.28320312 31.05078125 C-14.20910089 35.14251342 -14.00539987 39.01109644 -13 43 C-13.66 43 -14.32 43 -15 43 C-18.23198759 32.98212613 -18.73643515 21.63479972 -14 12 C-10.55940271 5.92161146 -6.63366251 2.27439857 0 0 Z " fill="#229D2E" transform="translate(158,295)"/>
<path d="M0 0 C0.33 0 0.66 0 1 0 C1 3.96 1 7.92 1 12 C9.80825866 14.53672495 17.60711987 15.44047984 26.75 15.3125 C27.91660156 15.31572266 29.08320313 15.31894531 30.28515625 15.32226562 C36.53254008 15.28335214 42.02422504 14.84719152 48 13 C45.69102663 15.90603468 44.52592688 16.91757324 40.79882812 17.50170898 C39.55552734 17.49985596 38.31222656 17.49800293 37.03125 17.49609375 C36.35509644 17.49754898 35.67894287 17.49900421 34.9822998 17.50050354 C33.55000508 17.49884608 32.11769227 17.48730147 30.68554688 17.46655273 C28.53434858 17.4379566 26.38567593 17.44587272 24.234375 17.45898438 C4.41408639 17.43061564 4.41408639 17.43061564 -1.82226562 12.58374023 C-3 11 -3 11 -3 8 C-2.34 8 -1.68 8 -1 8 C-1.020625 6.865625 -1.04125 5.73125 -1.0625 4.5625 C-1 1 -1 1 0 0 Z " fill="#279F33" transform="translate(203,378)"/>
<path d="M0 0 C0.66 0 1.32 0 2 0 C2 0.99 2 1.98 2 3 C2.66 3 3.32 3 4 3 C2.67191342 8.14442733 0.5159936 11.04728878 -3.125 14.875 C-3.59292969 15.37257813 -4.06085938 15.87015625 -4.54296875 16.3828125 C-5.68677301 17.59664559 -6.84221623 18.79949358 -8 20 C-8.99 19.67 -9.98 19.34 -11 19 C-10.814375 17.906875 -10.62875 16.81375 -10.4375 15.6875 C-9.7421932 12.06375867 -9.7421932 12.06375867 -11 9 C-10.67 8.34 -10.34 7.68 -10 7 C-9.34 7 -8.68 7 -8 7 C-7.67 9.31 -7.34 11.62 -7 14 C-6.01 14 -5.02 14 -4 14 C-4.33 12.35 -4.66 10.7 -5 9 C-3.35 9 -1.7 9 0 9 C-0.37125 8.443125 -0.7425 7.88625 -1.125 7.3125 C-2 5 -2 5 -1.125 2.25 C-0.75375 1.5075 -0.3825 0.765 0 0 Z " fill="#190CA7" transform="translate(342,243)"/>
<path d="M0 0 C0.10901505 2.83439137 0.18777904 5.66450203 0.25 8.5 C0.30027344 9.68722656 0.30027344 9.68722656 0.3515625 10.8984375 C0.45153439 16.99672294 -0.93089569 20.7317737 -4 26 C-4.33 26 -4.66 26 -5 26 C-5.12587413 20.46153846 -5.12587413 20.46153846 -4.4375 17.9375 C-3.86639328 15.40831308 -4.37797049 13.48811803 -5 11 C-4.34 11.33 -3.68 11.66 -3 12 C-3.33 10.68 -3.66 9.36 -4 8 C-5.32 8.33 -6.64 8.66 -8 9 C-8 6 -8 6 -6.50390625 4.39453125 C-5.86324219 3.87246094 -5.22257813 3.35039062 -4.5625 2.8125 C-3.92441406 2.28269531 -3.28632813 1.75289063 -2.62890625 1.20703125 C-1 0 -1 0 0 0 Z " fill="#1E9F28" transform="translate(253,351)"/>
<path d="M0 0 C-2.91316618 1.53395355 -5.8345655 2.65990899 -8.9375 3.75 C-15.32633077 6.29613697 -17.75915936 9.33449048 -20.6875 15.625 C-21.3371875 17.295625 -21.3371875 17.295625 -22 19 C-22.65288627 20.34013497 -23.31225595 21.67741528 -24 23 C-25.71050559 18.02398374 -24.00885647 14.57383705 -22 10 C-22.99 9.34 -23.98 8.68 -25 8 C-24.34 8 -23.68 8 -23 8 C-24.66924071 4.95865509 -24.66924071 4.95865509 -27 4 C-23.25 1 -23.25 1 -21 1 C-21 2.65 -21 4.3 -21 6 C-20.01 6.33 -19.02 6.66 -18 7 C-17.54625 6.505 -17.0925 6.01 -16.625 5.5 C-15 4 -15 4 -13 4 C-13 3.34 -13 2.68 -13 2 C-8.49646738 0.24252386 -4.82360189 -0.19294408 0 0 Z " fill="#E0FAE2" transform="translate(165,293)"/>
<path d="M0 0 C1.32 0 2.64 0 4 0 C6.48786268 2.48786268 6.51462837 3.94044337 7.0625 7.375 C7.65358219 11.23027467 7.65358219 11.23027467 8.68359375 14.9765625 C9 17 9 17 7 23 C-2.24 23 -11.48 23 -21 23 C-21 22.67 -21 22.34 -21 22 C-11.98175113 20.93003827 -3.06335876 20.89765341 6 21 C5.71729594 18.58197805 5.42420736 16.1659878 5.125 13.75 C5.04636719 13.06808594 4.96773437 12.38617188 4.88671875 11.68359375 C4.2629728 6.74160661 3.53228878 3.53228878 0 0 Z " fill="#FAEBD0" transform="translate(141,47)"/>
<path d="M0 0 C7.625 0.875 7.625 0.875 11 2 C11 2.66 11 3.32 11 4 C23.375 3.505 23.375 3.505 36 3 C35.505 1.515 35.505 1.515 35 0 C35.99 0 36.98 0 38 0 C38 0.66 38 1.32 38 2 C39.65 1.67 41.3 1.34 43 1 C40.6641808 4.5037288 39.97980213 4.8990937 36 6 C32.62146649 6.31021217 29.26609099 6.33248796 25.875 6.3125 C24.93664307 6.30903564 23.99828613 6.30557129 23.03149414 6.30200195 C14.50860342 6.16828927 6.81163636 5.51418181 0 0 Z " fill="#1A9A28" transform="translate(204,377)"/>
<path d="M0 0 C0 0.66 0 1.32 0 2 C-1.65 2.33 -3.3 2.66 -5 3 C-5.33 4.65 -5.66 6.3 -6 8 C-10 9 -10 9 -12 9.25 C-15.15766864 10.43412574 -16.24514644 12.15592699 -18 15 C-18.60554803 17.70244574 -18.81160426 20.22116287 -19 23 C-20.98 23.33 -22.96 23.66 -25 24 C-20.66109162 14.4582413 -12.33646912 0 0 0 Z " fill="#2014A5" transform="translate(290,172)"/>
<path d="M0 0 C0.86625 0.185625 1.7325 0.37125 2.625 0.5625 C6.05152628 1.00667933 8.64212371 0.71954492 12 0 C11.67 0.99 11.34 1.98 11 3 C11.99 3.33 12.98 3.66 14 4 C14.33 4.66 14.66 5.32 15 6 C22.59 6.33 30.18 6.66 38 7 C38 7.33 38 7.66 38 8 C25.71141761 10.25260154 13.00914244 9.74749621 2.1875 2.8125 C1.465625 2.214375 0.74375 1.61625 0 1 C0 0.67 0 0.34 0 0 Z " fill="#CCEECF" transform="translate(138,353)"/>
<path d="M0 0 C0.66 0 1.32 0 2 0 C2.33 3.63 2.66 7.26 3 11 C7.29 11 11.58 11 16 11 C15.67 11.66 15.34 12.32 15 13 C9.72 13 4.44 13 -1 13 C-0.67 10.69 -0.34 8.38 0 6 C-2.97132042 6.69802091 -2.97132042 6.69802091 -4.25 8.5 C-6.88955365 10.76247456 -9.62270673 10.68138743 -13 11 C-12.01 10.34 -11.02 9.68 -10 9 C-8.989375 8.29875 -7.97875 7.5975 -6.9375 6.875 C-4 5 -4 5 -2 5 C-1.34 3.35 -0.68 1.7 0 0 Z " fill="#D08834" transform="translate(285,109)"/>
<path d="M0 0 C0.99 0 1.98 0 3 0 C3.33 0.66 3.66 1.32 4 2 C6.01669827 3.13350534 6.01669827 3.13350534 8 4 C8 4.66 8 5.32 8 6 C8.99 5.34 9.98 4.68 11 4 C13.1875 4.375 13.1875 4.375 15 5 C15 5.99 15 6.98 15 8 C17.2910905 8.19441368 19.58290337 8.38033135 21.875 8.5625 C23.15117187 8.66691406 24.42734375 8.77132812 25.7421875 8.87890625 C28.88643942 9.25683367 28.88643942 9.25683367 31 8 C33.6723621 7.86584528 36.32250488 7.95681459 39 8 C32.53486675 12.31008883 23.64265905 11.8830792 16.20703125 10.46875 C9.52510459 8.60872806 3.86872148 6.01801119 0 0 Z " fill="#FBEDD4" transform="translate(233,111)"/>
<path d="M0 0 C0.33 0 0.66 0 1 0 C1.14695313 0.59167969 1.29390625 1.18335937 1.4453125 1.79296875 C3.13364498 7.74094466 4.83669503 10.55779669 10 14 C17.84302742 16.61434247 26.5237031 15.21373194 34 12 C37.02396701 10.00511714 37.02396701 10.00511714 39 8 C37.272346 11.8872215 35.51888508 13.84370393 31.87890625 16.015625 C27.87933426 17.38318557 24.14101065 17.48124955 19.9375 17.5 C18.78604492 17.50918457 18.78604492 17.50918457 17.61132812 17.51855469 C12.39777582 17.40424206 8.61357343 16.46292937 4 14 C2.125 11.375 2.125 11.375 1 9 C0.67 8.67 0.34 8.34 0 8 C-0.14115161 5.32941149 -0.04247107 2.67567762 0 0 Z " fill="#FDEFD7" transform="translate(242,94)"/>
<path d="M0 0 C1.98 0.495 1.98 0.495 4 1 C2.35 1.33 0.7 1.66 -1 2 C-0.67 1.34 -0.34 0.68 0 0 Z M-1 2 C0.6875 3.375 0.6875 3.375 2 5 C2 5.66 2 6.32 2 7 C10.58 6.67 19.16 6.34 28 6 C23.31227945 9.12514704 18.45089149 8.32833398 12.9375 8.3125 C11.29491211 8.33666992 11.29491211 8.33666992 9.61914062 8.36132812 C2.71174413 8.36544212 -3.60634007 7.78756124 -10 5 C-10.66 4.34 -11.32 3.68 -12 3 C-4.375 2 -4.375 2 -1 2 Z " fill="#1D0EA5" transform="translate(81,262)"/>
<path d="M0 0 C-0.99 0.66 -1.98 1.32 -3 2 C-2.34 2.66 -1.68 3.32 -1 4 C-5.37823917 4.04938149 -9.75633146 4.0857104 -14.13476562 4.10986328 C-15.6247032 4.11993043 -17.11462097 4.13358518 -18.60449219 4.15087891 C-20.74419028 4.17509653 -22.88362753 4.18647564 -25.0234375 4.1953125 C-26.31169434 4.20578613 -27.59995117 4.21625977 -28.92724609 4.22705078 C-32 4 -32 4 -34 2 C-31.07887743 1.15360432 -28.55115999 0.90146101 -25.515625 0.97265625 C-24.66226562 0.98490234 -23.80890625 0.99714844 -22.9296875 1.00976562 C-21.15876627 1.04461612 -19.38792109 1.08360431 -17.6171875 1.12695312 C-13.37325837 1.18111739 -9.59791219 1.04001263 -5.484375 -0.06640625 C-2 -1 -2 -1 0 0 Z " fill="#D0DAEF" transform="translate(326,268)"/>
<path d="M0 0 C0 0.66 0 1.32 0 2 C2.97 2.33 5.94 2.66 9 3 C10 6 10 6 10 9 C7.83714948 7.9958194 6.03136246 7.02595514 4.1875 5.5 C-1.52061821 1.5858618 -8.31642656 1.33549486 -15 2 C-18.73008212 2.81684077 -22.36347605 3.83852467 -26 5 C-26.66 4.01 -27.32 3.02 -28 2 C-20.22637706 -1.88681147 -8.52850387 -0.09523143 0 0 Z " fill="#1F139C" transform="translate(208,181)"/>
<path d="M0 0 C0 4.29 0 8.58 0 13 C-0.33 13 -0.66 13 -1 13 C-1.33 9.7 -1.66 6.4 -2 3 C-10.94644827 2.69345926 -18.90170974 2.72469929 -27.546875 5.44140625 C-30.13823797 6.03147775 -31.52296697 5.87390651 -34 5 C-23.31801329 0.20400597 -11.56559713 -0.31686567 0 0 Z " fill="#D1995A" transform="translate(147,78)"/>
<path d="M0 0 C1.65 0.33 3.3 0.66 5 1 C5.24878997 3.43694274 5.47463404 5.87238389 5.6875 8.3125 C5.76033203 9.00279297 5.83316406 9.69308594 5.90820312 10.40429688 C6.32468012 15.47551673 6.32468012 15.47551673 4.78125 17.96875 C1.58788973 19.81753752 -1.38242996 19.17791328 -5 19 C-2 17 -2 17 4 16 C4 11.38 4 6.76 4 2 C2.47375 2.639375 0.9475 3.27875 -0.625 3.9375 C-4.41858557 5.46247829 -7.90706566 6.56916481 -12 7 C-12 6.01 -12 5.02 -12 4 C-10.02 3.67 -8.04 3.34 -6 3 C-6 2.67 -6 2.34 -6 2 C-4.02 2 -2.04 2 0 2 C0 1.34 0 0.68 0 0 Z " fill="#E0DCFA" transform="translate(120,249)"/>
<path d="M0 0 C5.9594836 8.93922541 4.19615159 26.88874076 2.3984375 37.171875 C0.67001608 44.32998392 0.67001608 44.32998392 -2 47 C-2.33 45.35 -2.66 43.7 -3 42 C-2.34 42 -1.68 42 -1 42 C1.04406049 27.78282927 1.31460695 14.34330083 0 0 Z " fill="#1C1096" transform="translate(348,199)"/>
<path d="M0 0 C0.680625 0.7425 1.36125 1.485 2.0625 2.25 C6.92206484 7.04348289 11.46520695 9.48635635 18.26757812 9.44921875 C18.98365234 9.42472656 19.69972656 9.40023438 20.4375 9.375 C21.14970703 9.37371094 21.86191406 9.37242187 22.59570312 9.37109375 C27.66018567 9.28829567 32.1285039 8.37302596 37 7 C36.67 7.66 36.34 8.32 36 9 C35.01 9 34.02 9 33 9 C33 9.66 33 10.32 33 11 C28.89589245 11.05796132 24.79188984 11.09358313 20.6875 11.125 C19.52025391 11.14175781 18.35300781 11.15851563 17.15039062 11.17578125 C15.47299805 11.18544922 15.47299805 11.18544922 13.76171875 11.1953125 C12.2142395 11.21102295 12.2142395 11.21102295 10.63549805 11.22705078 C8 11 8 11 5 9 C4.01 9.495 4.01 9.495 3 10 C0.96564469 6.27034861 0 4.33094958 0 0 Z " fill="#CBF1CC" transform="translate(144,340)"/>
<path d="M0 0 C1.32 0 2.64 0 4 0 C4.33 17.82 4.66 35.64 5 54 C4.34 53.67 3.68 53.34 3 53 C2.67 37.16 2.34 21.32 2 5 C1.34 5 0.68 5 0 5 C0 3.35 0 1.7 0 0 Z " fill="#180AAA" transform="translate(164,131)"/>
<path d="M0 0 C-6.56864705 3.17791996 -12.58681527 4.40616232 -19.8125 4.4375 C-20.88745728 4.45200195 -20.88745728 4.45200195 -21.98413086 4.46679688 C-26.70369554 4.3921011 -29.95329693 3.39498753 -34 1 C-32.1875 0.375 -32.1875 0.375 -30 0 C-29.01 0.66 -28.02 1.32 -27 2 C-24.32500707 2.31712276 -24.32500707 2.31712276 -21.4375 2.25 C-19.98150391 2.25773437 -19.98150391 2.25773437 -18.49609375 2.265625 C-15.82707063 2.24594496 -15.82707063 2.24594496 -14 0 C-11.7578125 -0.44921875 -11.7578125 -0.44921875 -9.125 -0.6875 C-7.82949219 -0.81705078 -7.82949219 -0.81705078 -6.5078125 -0.94921875 C-4.11002241 -0.99777213 -2.27878559 -0.70483368 0 0 Z " fill="#149E23" transform="translate(184,346)"/>
<path d="M0 0 C0.72896484 -0.00386719 1.45792969 -0.00773438 2.20898438 -0.01171875 C6.37335329 -0.00422214 10.37159436 0.11925562 14.4375 1.125 C16.71613153 4.01126661 17.4375 5.4297018 17.4375 9.125 C16.57125 8.34125 15.705 7.5575 14.8125 6.75 C8.40572054 1.51483068 1.43966737 1.41982816 -6.5625 2.125 C-9.68050216 2.88367 -12.61004661 3.87244402 -15.5625 5.125 C-15.5625 3.805 -15.5625 2.485 -15.5625 1.125 C-10.32824848 0.25607287 -5.30123441 -0.02827325 0 0 Z " fill="#1C1094" transform="translate(88.5625,180.875)"/>
<path d="M0 0 C5.58588664 6.09369451 5.34072082 14.58605496 5.3125 22.375 C5.32861328 23.25671875 5.34472656 24.1384375 5.36132812 25.046875 C5.36604361 31.47879498 4.15197715 36.95036314 2 43 C1.67 43 1.34 43 1 43 C0.8289076 40.09142922 0.96808218 38.08616549 1.98828125 35.33203125 C3.16930283 31.44241191 3.34145056 27.83798539 3.3125 23.8125 C3.31121094 23.06653564 3.30992187 22.32057129 3.30859375 21.55200195 C3.21529741 16.14722835 2.39995903 11.34154584 0.65625 6.19921875 C0 4 0 4 0 0 Z " fill="#269832" transform="translate(248,300)"/>
<path d="M0 0 C-0.99 0.495 -0.99 0.495 -2 1 C-2 1.66 -2 2.32 -2 3 C-12.06354218 3.12847075 -21.96724089 2.79692838 -32 2 C-32 1.67 -32 1.34 -32 1 C-31.39003174 0.97494385 -30.78006348 0.9498877 -30.15161133 0.92407227 C-27.37172102 0.8075942 -24.5921266 0.68510368 -21.8125 0.5625 C-20.85279297 0.52318359 -19.89308594 0.48386719 -18.90429688 0.44335938 C-17.97294922 0.40146484 -17.04160156 0.35957031 -16.08203125 0.31640625 C-15.22843018 0.27974854 -14.3748291 0.24309082 -13.49536133 0.20532227 C-10.96537132 0.04914119 -10.96537132 0.04914119 -8.3894043 -0.54711914 C-5.3872998 -1.11612944 -2.96828237 -0.6212684 0 0 Z " fill="#CCD2EA" transform="translate(117,269)"/>
<path d="M0 0 C6.6 0 13.2 0 20 0 C20 0.66 20 1.32 20 2 C18.68 2 17.36 2 16 2 C16.33 3.65 16.66 5.3 17 7 C16.319375 6.34 15.63875 5.68 14.9375 5 C11.28060335 2.51019802 9.34579086 2.44689935 5 3 C2.59916562 4.35885116 2.59916562 4.35885116 1 6 C0 1.125 0 1.125 0 0 Z " fill="#D48A35" transform="translate(186,0)"/>
<path d="M0 0 C0.33 0 0.66 0 1 0 C1.08636719 0.556875 1.17273438 1.11375 1.26171875 1.6875 C2.57954979 8.84489427 5.13148649 14.20697368 10.375 19.3125 C14.95678475 22.25793305 19.60867022 24.18313185 25 25 C25 25.33 25 25.66 25 26 C12.81757162 25.38127772 12.81757162 25.38127772 9 22 C3.01654806 15.04750572 -0.48079166 9.29530535 0 0 Z " fill="#CC8D42" transform="translate(227,96)"/>
<path d="M0 0 C0 5 0 5 -1 8 C-3.475 7.505 -3.475 7.505 -6 7 C-6 7.66 -6 8.32 -6 9 C-11.24955168 11.15758273 -15.80810284 11.24042211 -21.375 11.125 C-22.20644531 11.11597656 -23.03789062 11.10695313 -23.89453125 11.09765625 C-25.92981337 11.0742622 -27.96494564 11.03839725 -30 11 C-30 10.34 -30 9.68 -30 9 C-29.09378906 9.03480469 -28.18757813 9.06960938 -27.25390625 9.10546875 C-16.53091863 9.34375736 -9.20559679 8.65419565 -1.21484375 1.20703125 C-0.61349609 0.60955078 -0.61349609 0.60955078 0 0 Z " fill="#190C9A" transform="translate(328,248)"/>
<path d="M0 0 C0.99 0.495 0.99 0.495 2 1 C2 2.98 2 4.96 2 7 C2.99 6.67 3.98 6.34 5 6 C5.66 6.66 6.32 7.32 7 8 C6.34 8 5.68 8 5 8 C4.67 9.65 4.34 11.3 4 13 C5.65 13 7.3 13 9 13 C8.979375 13.9075 8.95875 14.815 8.9375 15.75 C8.9889755 18.42672588 9.2215017 20.46988052 10 23 C4.61609626 18.38522536 1.80168405 11.75631517 0 5 C-0.125 2.125 -0.125 2.125 0 0 Z " fill="#170B9C" transform="translate(47,233)"/>
<path d="M0 0 C1.06356491 2.12712982 2.12271892 4.25670795 3.1484375 6.40234375 C5.38295269 11.02081622 7.53697306 15.15219229 11 19 C8.525 18.01 8.525 18.01 6 17 C6 16.34 6 15.68 6 15 C5.01 15.33 4.02 15.66 3 16 C0.3125 14.1875 0.3125 14.1875 -2 12 C-2 11.34 -2 10.68 -2 10 C-1.34 9.67 -0.68 9.34 0 9 C0 6.03 0 3.06 0 0 Z " fill="#1A0EA2" transform="translate(62,233)"/>
<path d="M0 0 C1.19785364 2.39570728 1.28077318 4.27154527 1.5 6.9375 C1.74363648 9.89159237 2.05630488 12.16891465 3 15 C4.98 15 6.96 15 9 15 C9 15.33 9 15.66 9 16 C2.62149533 16.49065421 2.62149533 16.49065421 -0.375 14.125 C-3.06616193 10.60578824 -3.35432441 8.42905517 -3 4 C-1.5 1.625 -1.5 1.625 0 0 Z " fill="#FBEFE0" transform="translate(189,4)"/>
<path d="M0 0 C1.16180608 3.92759816 0.75984959 6.97279717 0 11 C-0.33 11.33 -0.66 11.66 -1 12 C-1.15620555 13.41327947 -1.25056173 14.8335459 -1.31640625 16.25390625 C-1.35830078 17.10791016 -1.40019531 17.96191406 -1.44335938 18.84179688 C-1.48267578 19.73962891 -1.52199219 20.63746094 -1.5625 21.5625 C-1.60568359 22.46419922 -1.64886719 23.36589844 -1.69335938 24.29492188 C-1.79978142 26.52978485 -1.90179988 28.76476308 -2 31 C-2.33 31 -2.66 31 -3 31 C-5.45141814 19.96861839 -3.79016182 10.49062647 0 0 Z " fill="#BDEBBC" transform="translate(131,305)"/>
<path d="M0 0 C-3.39774489 1.06484349 -6.33588248 0.97909968 -9.875 0.8125 C-16.93274457 0.76104621 -19.84980508 2.94329181 -24.875 7.75 C-25.926875 8.86375 -25.926875 8.86375 -27 10 C-27.33 9.34 -27.66 8.68 -28 8 C-27.34 7.01 -26.68 6.02 -26 5 C-25.34 5 -24.68 5 -24 5 C-24 4.01 -24 3.02 -24 2 C-15.36196236 -1.49895196 -9.03804848 -3.52704331 0 0 Z " fill="#D4F8D7" transform="translate(241,293)"/>
<path d="M0 0 C2 3 2 3 2 13 C-10.375 13.495 -10.375 13.495 -23 14 C-23 13.67 -23 13.34 -23 13 C-18.26120232 11.85149303 -13.53708638 11.67098443 -8.6875 11.4375 C-7.85154297 11.39431641 -7.01558594 11.35113281 -6.15429688 11.30664062 C-4.10303065 11.20114693 -2.0515352 11.10012685 0 11 C0 7.37 0 3.74 0 0 Z " fill="#CA8D42" transform="translate(145,55)"/>
<path d="M0 0 C0 3 0 3 -0.5625 6.0625 C-1.27626304 8.92588543 -1.27626304 8.92588543 0 11 C-3.13349732 12.04449911 -3.98968256 11.93423645 -7 11 C-7.66 12.32 -8.32 13.64 -9 15 C-9 14.34 -9 13.68 -9 13 C-10.65 13.33 -12.3 13.66 -14 14 C-13.27425781 13.44828125 -12.54851562 12.8965625 -11.80078125 12.328125 C-8.97395164 9.97834753 -6.61627451 7.5050278 -4.1875 4.75 C-3.39730469 3.85796875 -2.60710937 2.9659375 -1.79296875 2.046875 C-1.20128906 1.37140625 -0.60960937 0.6959375 0 0 Z " fill="#ECEBFA" transform="translate(343,252)"/>
<path d="M0 0 C1.32 0.33 2.64 0.66 4 1 C2.63875 2.3921875 2.63875 2.3921875 1.25 3.8125 C-3.80302533 9.68977769 -6.17379951 17.35764545 -7 25 C-7.33 25 -7.66 25 -8 25 C-8.1008824 20.25852724 -7.81106557 15.72124316 -7.21875 11.015625 C-6.9460532 8.84082884 -6.9460532 8.84082884 -7 6 C-5 5 -3 4 -1 3 C-0.67 2.01 -0.34 1.02 0 0 Z " fill="#1C1199" transform="translate(69,186)"/>
<path d="M0 0 C1.258125 0.33 2.51625 0.66 3.8125 1 C12.08044639 2.699057 20.6043379 2.15515597 29 2 C28.67 2.66 28.34 3.32 28 4 C19.42 4.33 10.84 4.66 2 5 C2 4.34 2 3.68 2 3 C1.34 2.67 0.68 2.34 0 2 C0 1.34 0 0.68 0 0 Z " fill="#189C28" transform="translate(147,359)"/>
<path d="M0 0 C0.53367188 0.144375 1.06734375 0.28875 1.6171875 0.4375 C11.13823546 2.80952579 19.50310083 2.26309087 29 0 C28.67 0.99 28.34 1.98 28 3 C23.71817238 4.42727587 19.61054564 4.22447769 15.125 4.25 C14.22652344 4.270625 13.32804688 4.29125 12.40234375 4.3125 C7.47131546 4.34163458 3.974877 4.29299434 0 1 C0 0.67 0 0.34 0 0 Z " fill="#1D992C" transform="translate(215,359)"/>
<path d="M0 0 C0.33 0 0.66 0 1 0 C2.51377767 10.21799928 2.76007341 17.65190402 -2 27 C-2.33 27.99 -2.66 28.98 -3 30 C-3.66 30 -4.32 30 -5 30 C-4.79503906 29.32453125 -4.59007812 28.6490625 -4.37890625 27.953125 C-3.97478516 26.61507812 -3.97478516 26.61507812 -3.5625 25.25 C-3.29566406 24.36828125 -3.02882813 23.4865625 -2.75390625 22.578125 C-1.3000444 17.60636944 -0.71637674 12.92522083 -0.4375 7.75 C-0.37272461 6.63238281 -0.37272461 6.63238281 -0.30664062 5.4921875 C-0.20103275 3.661651 -0.10005799 1.83084824 0 0 Z " fill="#2A1F9C" transform="translate(335,216)"/>
<path d="M0 0 C0.66 0.33 1.32 0.66 2 1 C1.67 1.99 1.34 2.98 1 4 C0.01 4 -0.98 4 -2 4 C-2.19672365 5.72814161 -2.38196799 7.45759197 -2.5625 9.1875 C-2.66691406 10.15042969 -2.77132812 11.11335938 -2.87890625 12.10546875 C-2.99758751 14.94233377 -2.67765639 17.25423671 -2 20 C-1.01 19.67 -0.02 19.34 1 19 C1 20.65 1 22.3 1 24 C-3.22031761 19.99610894 -5.12082394 17.52857575 -5.3125 11.6875 C-5.27898478 6.55129317 -3.6444467 3.6444467 0 0 Z " fill="#CA8E4C" transform="translate(111,84)"/>
<path d="M0 0 C0.33 0 0.66 0 1 0 C1.02578125 1.01578125 1.0515625 2.0315625 1.078125 3.078125 C1.43349038 12.67065238 2.6358696 21.27173921 7 30 C5.68 29.34 4.36 28.68 3 28 C3 26.68 3 25.36 3 24 C2.34 24 1.68 24 1 24 C0.01956036 21.05868109 -0.11621202 19.17498335 -0.09765625 16.11328125 C-0.09443359 15.17548828 -0.09121094 14.23769531 -0.08789062 13.27148438 C-0.07532227 11.80678711 -0.07532227 11.80678711 -0.0625 10.3125 C-0.05798828 9.32443359 -0.05347656 8.33636719 -0.04882812 7.31835938 C-0.03704303 4.87884526 -0.02059011 2.43945311 0 0 Z " fill="#2AA134" transform="translate(197,318)"/>
<path d="M0 0 C-5.11440685 5.11440685 -13.34583119 5.1646074 -20.20703125 5.20654297 C-23.80676868 5.17890719 -27.40168722 5.10688058 -31 5 C-31 4.67 -31 4.34 -31 4 C-29.80761719 3.95101563 -28.61523438 3.90203125 -27.38671875 3.8515625 C-25.82028932 3.77652396 -24.25388421 3.7009766 -22.6875 3.625 C-21.90181641 3.5940625 -21.11613281 3.563125 -20.30664062 3.53125 C-19.54931641 3.49257813 -18.79199219 3.45390625 -18.01171875 3.4140625 C-17.31522217 3.3826416 -16.61872559 3.3512207 -15.90112305 3.31884766 C-13.67467261 3.07881747 -13.67467261 3.07881747 -11 1 C-7.28759166 0.19295471 -3.79349787 -0.11157347 0 0 Z " fill="#1D1199" transform="translate(329,265)"/>
<path d="M0 0 C0.33 0 0.66 0 1 0 C1.04898438 0.97839844 1.09796875 1.95679688 1.1484375 2.96484375 C1.55892238 10.16248379 2.15869223 17.00303049 4 24 C3.01 23.67 2.02 23.34 1 23 C-2.45371102 15.9108037 -1.31081067 7.53716136 0 0 Z " fill="#D5FAD5" transform="translate(140,316)"/>
<path d="M0 0 C0.66 0.66 1.32 1.32 2 2 C1.505 2.94875 1.01 3.8975 0.5 4.875 C-2.69697105 12.39015469 -1.06315395 20.37369879 1 28 C0.34 27.67 -0.32 27.34 -1 27 C-1 26.34 -1 25.68 -1 25 C-1.66 25 -2.32 25 -3 25 C-3.08156437 22.14524694 -3.14076372 19.29286435 -3.1875 16.4375 C-3.21263672 15.63763672 -3.23777344 14.83777344 -3.26367188 14.01367188 C-3.33054885 8.55205195 -2.4909519 4.87075897 0 0 Z " fill="#CE9048" transform="translate(93,82)"/>
<path d="M0 0 C2.03144641 0.93446535 4.03533587 1.93224776 6 3 C4.29171079 5.10633718 3.47851584 5.93801608 0.73828125 6.29296875 C-0.06222656 6.25816406 -0.86273438 6.22335937 -1.6875 6.1875 C-2.49574219 6.16042969 -3.30398438 6.13335937 -4.13671875 6.10546875 C-4.75160156 6.07066406 -5.36648438 6.03585937 -6 6 C-2.25 1.125 -2.25 1.125 0 0 Z " fill="#F4F2FA" transform="translate(284,265)"/>
<path d="M0 0 C3.63 0 7.26 0 11 0 C10.67 0.66 10.34 1.32 10 2 C7.03 1.67 4.06 1.34 1 1 C1 4.3 1 7.6 1 11 C-0.32 11.33 -1.64 11.66 -3 12 C-3.99 10.68 -4.98 9.36 -6 8 C-5.67 7.34 -5.34 6.68 -5 6 C-4.01 6.99 -3.02 7.98 -2 9 C-1.34 6.03 -0.68 3.06 0 0 Z " fill="#C4F6C5" transform="translate(255,283)"/>
<path d="M0 0 C0.33 0 0.66 0 1 0 C1.22245393 1.60226955 1.42746669 3.20696767 1.625 4.8125 C1.79902344 6.15248047 1.79902344 6.15248047 1.9765625 7.51953125 C2 10 2 10 0 13 C-2.71484375 13.80078125 -2.71484375 13.80078125 -5.9375 14.3125 C-6.99839844 14.49425781 -8.05929688 14.67601562 -9.15234375 14.86328125 C-12 15 -12 15 -15 13 C-14.67 12.34 -14.34 11.68 -14 11 C-13.34 11.33 -12.68 11.66 -12 12 C-7.40584771 12.51601974 -7.40584771 12.51601974 -3.3515625 10.77734375 C-1.71947912 8.63110693 -1.30969328 6.95144897 -0.8125 4.3125 C-0.65394531 3.50425781 -0.49539062 2.69601563 -0.33203125 1.86328125 C-0.22246094 1.24839844 -0.11289063 0.63351563 0 0 Z " fill="#CD9047" transform="translate(203,7)"/>
<path d="M0 0 C0.33 0 0.66 0 1 0 C1.63019694 9.99562363 1.63019694 9.99562363 -1 14.1875 C-1.66 14.785625 -2.32 15.38375 -3 16 C-3.12587413 10.46153846 -3.12587413 10.46153846 -2.4375 7.9375 C-1.86639328 5.40831308 -2.37797049 3.48811803 -3 1 C-2.01 1.495 -2.01 1.495 -1 2 C-0.67 1.34 -0.34 0.68 0 0 Z " fill="#09A318" transform="translate(251,361)"/>
<path d="M0 0 C-0.33 0.99 -0.66 1.98 -1 3 C-3.79192205 3.05380578 -6.5828141 3.09357669 -9.375 3.125 C-10.1690625 3.14175781 -10.963125 3.15851563 -11.78125 3.17578125 C-13.85492015 3.19335473 -15.92883241 3.10335168 -18 3 C-18.66 2.34 -19.32 1.68 -20 1 C-17.04170322 0.832662 -14.08336635 0.66609948 -11.125 0.5 C-9.86236328 0.42845703 -9.86236328 0.42845703 -8.57421875 0.35546875 C-7.76855469 0.31035156 -6.96289062 0.26523437 -6.1328125 0.21875 C-5.38918457 0.17685547 -4.64555664 0.13496094 -3.87939453 0.09179688 C-2.58744125 0.0286929 -1.29349349 0 0 0 Z " fill="#C1EDBF" transform="translate(242,382)"/>
<path d="M0 0 C3.61938095 2.64116988 5.98706523 4.97413046 8 9 C8 9.66 8 10.32 8 11 C2.25 9.25 2.25 9.25 0 7 C-0.125 3.375 -0.125 3.375 0 0 Z " fill="#1E11A5" transform="translate(337,181)"/>
<path d="M0 0 C6.67353409 0.28398017 10.71077185 3.07805532 16 7 C16.33 5.35 16.66 3.7 17 2 C18.10844919 5.32534757 17.84454356 7.62182575 17 11 C16.52691406 10.61328125 16.05382812 10.2265625 15.56640625 9.828125 C10.66095713 5.96496429 5.80389455 3.28393999 0 1 C0 0.67 0 0.34 0 0 Z " fill="#2B9632" transform="translate(237,282)"/>
<path d="M0 0 C2.44140625 0.74869792 4.8828125 1.49739583 7.32421875 2.24609375 C9.87025921 2.96344529 12.4003423 3.517541 15 4 C15 4.33 15 4.66 15 5 C13.41632253 4.85795259 11.83306682 4.71119847 10.25 4.5625 C9.36828125 4.48128906 8.4865625 4.40007812 7.578125 4.31640625 C5.30649548 4.03761535 3.20148177 3.61209423 1 3 C1 5.64 1 8.28 1 11 C1.99 11 2.98 11 4 11 C4 11.66 4 12.32 4 13 C2.68 12.67 1.36 12.34 0 12 C0 8.04 0 4.08 0 0 Z " fill="#D2F9D1" transform="translate(204,378)"/>
<path d="M0 0 C-0.33 0.99 -0.66 1.98 -1 3 C-2.98 3 -4.96 3 -7 3 C-7 3.66 -7 4.32 -7 5 C-11.455 5.495 -11.455 5.495 -16 6 C-13.16975328 3.16975328 -12.16226003 2.45980969 -8.5625 1.3125 C-7.80066406 1.06113281 -7.03882812 0.80976562 -6.25390625 0.55078125 C-4 0 -4 0 0 0 Z " fill="#FCEDDA" transform="translate(119,70)"/>
<path d="M0 0 C2.73370045 2.36092311 3.91097645 4.56538728 5 8 C5 9.32 5 10.64 5 12 C4.34 12 3.68 12 3 12 C2.67 12.99 2.34 13.98 2 15 C-0.37868203 11.36201572 0.23762478 9.15070952 1 5 C0.63141012 2.23135047 0.63141012 2.23135047 0 0 Z " fill="#FDF3E1" transform="translate(155,42)"/>
<path d="M0 0 C2.97 0.495 2.97 0.495 6 1 C2.39221586 5.91970564 -0.24665785 7.96940865 -6 10 C-5.3125 8.0625 -5.3125 8.0625 -4 6 C-1.375 5.25 -1.375 5.25 1 5 C0.67 3.35 0.34 1.7 0 0 Z " fill="#DFFCEA" transform="translate(254,382)"/>
<path d="M0 0 C0.33 0 0.66 0 1 0 C1.14695313 0.59167969 1.29390625 1.18335937 1.4453125 1.79296875 C3.5781277 9.3068522 6.56085441 11.70723628 13 16 C6.25 15.125 6.25 15.125 4 14 C2.96986723 12.35178756 1.96885372 10.68496298 1 9 C0.67 8.67 0.34 8.34 0 8 C-0.14115161 5.32941149 -0.04247107 2.67567762 0 0 Z " fill="#FAE9CB" transform="translate(242,94)"/>
<path d="M0 0 C0.33 0 0.66 0 1 0 C1.44571523 8.12192202 1.52706476 14.0762539 -3 21 C-3.66 21.33 -4.32 21.66 -5 22 C-5.33 20.02 -5.66 18.04 -6 16 C-4.68 15.67 -3.36 15.34 -2 15 C-1.34 10.05 -0.68 5.1 0 0 Z " fill="#CF8B3A" transform="translate(145,81)"/>
<path d="M0 0 C0.66 0.33 1.32 0.66 2 1 C-1.18836366 3.84394166 -3.18286254 4.36361896 -7.421875 4.29296875 C-8.95908203 4.2784668 -8.95908203 4.2784668 -10.52734375 4.26367188 C-11.59082031 4.23853516 -12.65429688 4.21339844 -13.75 4.1875 C-15.36841797 4.16719727 -15.36841797 4.16719727 -17.01953125 4.14648438 C-19.6801942 4.11116584 -22.33984296 4.06184199 -25 4 C-25 3.67 -25 3.34 -25 3 C-23.69804687 2.95101563 -22.39609375 2.90203125 -21.0546875 2.8515625 C-19.32810529 2.77649371 -17.60154378 2.70094767 -15.875 2.625 C-14.59109375 2.57859375 -14.59109375 2.57859375 -13.28125 2.53125 C-8.46830121 2.3091139 -4.57097662 1.63757729 0 0 Z " fill="#44AC4C" transform="translate(249,391)"/>
<path d="M0 0 C0.70125 0.7425 1.4025 1.485 2.125 2.25 C4.97718006 4.97817223 7.6763063 6.91302954 11 9 C9.68 9.33 8.36 9.66 7 10 C6.67 9.34 6.34 8.68 6 8 C4.35 8 2.7 8 1 8 C0.67 5.36 0.34 2.72 0 0 Z " fill="#1EA027" transform="translate(204,349)"/>
<path d="M0 0 C1.32 0.33 2.64 0.66 4 1 C3.01 1.495 3.01 1.495 2 2 C2.309375 3.175625 2.309375 3.175625 2.625 4.375 C2.74875 5.24125 2.8725 6.1075 3 7 C2.34 7.66 1.68 8.32 1 9 C-0.65 7.02 -2.3 5.04 -4 3 C-2.68 2.67 -1.36 2.34 0 2 C0 1.34 0 0.68 0 0 Z " fill="#F2F0FB" transform="translate(340,176)"/>
<path d="M0 0 C0.99 0.33 1.98 0.66 3 1 C2.34 2.32 1.68 3.64 1 5 C0.34 5 -0.32 5 -1 5 C-1.33 5.66 -1.66 6.32 -2 7 C-3.65 6.67 -5.3 6.34 -7 6 C-2.25 1.125 -2.25 1.125 0 0 Z " fill="#EDECFC" transform="translate(294,184)"/>
<path d="M0 0 C0.66 0.33 1.32 0.66 2 1 C1.34 2.65 0.68 4.3 0 6 C-1.36125 5.938125 -1.36125 5.938125 -2.75 5.875 C-5.8782046 5.99531556 -7.38614006 6.3914708 -10 8 C-7.1524798 3.94775971 -4.63339243 1.8130666 0 0 Z " fill="#EAE9FB" transform="translate(79,183)"/>
<path d="M0 0 C0.66 0 1.32 0 2 0 C1.75 2.375 1.75 2.375 1 5 C-0.875 6.125 -0.875 6.125 -3 7 C-3.6496875 7.7734375 -3.6496875 7.7734375 -4.3125 8.5625 C-6.91350862 10.77817401 -9.6843889 10.6872065 -13 11 C-12.01 10.34 -11.02 9.68 -10 9 C-8.989375 8.29875 -7.97875 7.5975 -6.9375 6.875 C-4 5 -4 5 -2 5 C-1.34 3.35 -0.68 1.7 0 0 Z " fill="#CA9352" transform="translate(285,109)"/>
<path d="M0 0 C0.99 0.33 1.98 0.66 3 1 C3.33 2.65 3.66 4.3 4 6 C3.360625 6.12375 2.72125 6.2475 2.0625 6.375 C1.0415625 6.684375 1.0415625 6.684375 0 7 C-0.33 7.66 -0.66 8.32 -1 9 C-1 8.34 -1 7.68 -1 7 C-1.66 6.67 -2.32 6.34 -3 6 C-2.01 4.02 -1.02 2.04 0 0 Z " fill="#1B0EAA" transform="translate(52,190)"/>
<path d="M0 0 C-2.50121027 1.66747352 -4.70253857 2.81930839 -7.4375 4 C-10.33736985 5.25611959 -13.1847173 6.5635004 -16 8 C-15.25 6.0625 -15.25 6.0625 -14 4 C-11.875 3.25 -11.875 3.25 -10 3 C-10 2.34 -10 1.68 -10 1 C-6.78548731 -0.60725635 -3.56387464 -0.05748185 0 0 Z " fill="#CC8F46" transform="translate(115,70)"/>
<path d="M0 0 C0.66 0 1.32 0 2 0 C2.33 5.28 2.66 10.56 3 16 C0 13 0 13 -0.29296875 9.86328125 C-0.25816406 8.69152344 -0.22335938 7.51976562 -0.1875 6.3125 C-0.16042969 5.13300781 -0.13335937 3.95351563 -0.10546875 2.73828125 C-0.07066406 1.83464844 -0.03585938 0.93101562 0 0 Z " fill="#199B23" transform="translate(125,320)"/>
<path d="M0 0 C0.33 0 0.66 0 1 0 C1.24887295 2.10192697 1.4734719 4.20673964 1.6875 6.3125 C1.81511719 7.48425781 1.94273438 8.65601563 2.07421875 9.86328125 C2 13 2 13 0.78125 14.90625 C-2.38728297 16.85184042 -5.36171099 16.17893225 -9 16 C-6 14 -6 14 0 13 C0 8.71 0 4.42 0 0 Z " fill="#D2D0F4" transform="translate(124,252)"/>
<path d="M0 0 C2 3 2 3 1.625 5.6875 C1.41875 6.450625 1.2125 7.21375 1 8 C-0.32 7.67 -1.64 7.34 -3 7 C-3.33 5.68 -3.66 4.36 -4 3 C-2.68 2.01 -1.36 1.02 0 0 Z " fill="#EFEDF9" transform="translate(110,198)"/>
<path d="M0 0 C0.99 0.33 1.98 0.66 3 1 C3.33 3.97 3.66 6.94 4 10 C6.64 10 9.28 10 12 10 C12 10.33 12 10.66 12 11 C8.7 11 5.4 11 2 11 C1.34 7.37 0.68 3.74 0 0 Z " fill="#FEF3D8" transform="translate(148,109)"/>
<path d="M0 0 C-3.41755889 4.76017131 -3.41755889 4.76017131 -6.125 5.875 C-8 6 -8 6 -10 5 C-10 4.01 -10 3.02 -10 2 C-8.71211992 1.46987262 -7.41953322 0.9511671 -6.125 0.4375 C-5.40570313 0.14746094 -4.68640625 -0.14257812 -3.9453125 -0.44140625 C-2 -1 -2 -1 0 0 Z " fill="#FDFBFC" transform="translate(223,285)"/>
<path d="M0 0 C1.75098126 2.62647188 3.38731308 5.28775382 5 8 C6.98 7.34 8.96 6.68 11 6 C9.375 8.0625 9.375 8.0625 7 10 C3.75 9.75 3.75 9.75 1 9 C0.67 6.03 0.34 3.06 0 0 Z " fill="#CE9451" transform="translate(101,42)"/>
<path d="M0 0 C5.875 0.875 5.875 0.875 7 2 C9.69235776 2.23678716 12.36498156 2.42198025 15.0625 2.5625 C16.20041992 2.62727539 16.20041992 2.62727539 17.36132812 2.69335938 C19.24065438 2.79973633 21.12030244 2.90039934 23 3 C23 3.33 23 3.66 23 4 C20.29105233 4.08144943 17.58458737 4.14070614 14.875 4.1875 C13.73417969 4.22520508 13.73417969 4.22520508 12.5703125 4.26367188 C7.5975739 4.32797453 4.36383518 3.65594442 0 1 C0 0.67 0 0.34 0 0 Z " fill="#239A32" transform="translate(150,346)"/>
<path d="M0 0 C4.82675589 2.41337795 7.69984002 5.86062408 11 10 C9.68 10.33 8.36 10.66 7 11 C7 9.68 7 8.36 7 7 C6.34 7 5.68 7 5 7 C4.67 6.34 4.34 5.68 4 5 C3.01 4.67 2.02 4.34 1 4 C0.3125 1.9375 0.3125 1.9375 0 0 Z " fill="#1E1299" transform="translate(111,176)"/>
<path d="M0 0 C0.66 0.33 1.32 0.66 2 1 C1.175 1.598125 0.35 2.19625 -0.5 2.8125 C-1.7375 3.8953125 -1.7375 3.8953125 -3 5 C-3 5.99 -3 6.98 -3 8 C-3.639375 8.103125 -4.27875 8.20625 -4.9375 8.3125 C-5.9584375 8.6528125 -5.9584375 8.6528125 -7 9 C-7.33 9.99 -7.66 10.98 -8 12 C-8.33 11.01 -8.66 10.02 -9 9 C-7.63671875 6.9921875 -7.63671875 6.9921875 -5.6875 4.875 C-5.05199219 4.17117187 -4.41648438 3.46734375 -3.76171875 2.7421875 C-2 1 -2 1 0 0 Z " fill="#281BA6" transform="translate(179,175)"/>
<path d="M0 0 C0 4.22023957 -1.85196466 6.668279 -4.5625 9.8125 C-6 11 -6 11 -8 11 C-6.60366572 6.55711819 -4.39598172 4.13475236 -1 1 C-0.67 0.67 -0.34 0.34 0 0 Z " fill="#FBEDD7" transform="translate(101,76)"/>
<path d="M0 0 C1.98 0 3.96 0 6 0 C5.979375 0.9075 5.95875 1.815 5.9375 2.75 C5.9889755 5.42672588 6.2215017 7.46988052 7 10 C3.66442368 7.0094833 1.84916079 4.06815373 0 0 Z " fill="#2416A5" transform="translate(50,246)"/>
<path d="M0 0 C2.32240046 2.85021875 3.93906527 5.46355091 5 9 C4.625 11.3125 4.625 11.3125 4 13 C0.25474201 9.25474201 0.31090051 5.01729091 0 0 Z " fill="#1D1099" transform="translate(122,188)"/>
<path d="M0 0 C4.43458973 1.3937282 6.87378374 3.60582235 10 7 C9.67 7.66 9.34 8.32 9 9 C8.01 9 7.02 9 6 9 C5.7525 8.21625 5.505 7.4325 5.25 6.625 C3.84610901 3.67682892 2.99324263 3.0975223 0 2 C0 1.34 0 0.68 0 0 Z " fill="#E6E6FC" transform="translate(208,184)"/>
<path d="M0 0 C0.66 1.32 1.32 2.64 2 4 C-0.97 6.475 -0.97 6.475 -4 9 C-4.66 8.67 -5.32 8.34 -6 8 C-4.02 5.36 -2.04 2.72 0 0 Z " fill="#2518AA" transform="translate(59,180)"/>
<path d="M0 0 C-0.99 0.495 -0.99 0.495 -2 1 C-2.33 1.99 -2.66 2.98 -3 4 C-3.99 4.33 -4.98 4.66 -6 5 C-6 4.01 -6 3.02 -6 2 C-7.98 2.66 -9.96 3.32 -12 4 C-8.66437635 0.13769893 -4.98576775 -1.84658065 0 0 Z " fill="#E7E7FB" transform="translate(192,184)"/>
<path d="M0 0 C0 1.65 0 3.3 0 5 C-1.66666667 5 -3.33333333 5 -5 5 C-5.99 6.485 -5.99 6.485 -7 8 C-7.66 8 -8.32 8 -9 8 C-7.73071426 4.44599992 -4.13162074 0 0 0 Z " fill="#190C99" transform="translate(69,174)"/>
<path d="M0 0 C1.09570312 0.00902344 2.19140625 0.01804688 3.3203125 0.02734375 C4.16335937 0.03894531 5.00640625 0.05054688 5.875 0.0625 C5.875 0.3925 5.875 0.7225 5.875 1.0625 C-1.055 2.5475 -1.055 2.5475 -8.125 4.0625 C-8.125 3.0725 -8.125 2.0825 -8.125 1.0625 C-5.36047967 -0.31976016 -3.0788637 -0.03275387 0 0 Z " fill="#1D0EA9" transform="translate(193.125,170.9375)"/>
<path d="M0 0 C7.625 0.875 7.625 0.875 11 2 C11 2.66 11 3.32 11 4 C11.99 4.33 12.98 4.66 14 5 C8.58609132 4.53328373 4.79482068 3.75702189 0 1 C0 0.67 0 0.34 0 0 Z " fill="#259D33" transform="translate(204,377)"/>
<path d="M0 0 C0.66 0.66 1.32 1.32 2 2 C1.62916167 5.4117126 0.89141824 8.68901795 0 12 C-1.32 11.67 -2.64 11.34 -4 11 C-3.525625 10.113125 -3.05125 9.22625 -2.5625 8.3125 C-1.20262851 5.42957244 -0.45939614 3.12389377 0 0 Z " fill="#D5F6D2" transform="translate(252,333)"/>
<path d="M0 0 C0.99 0.33 1.98 0.66 3 1 C2.38511719 1.67095703 2.38511719 1.67095703 1.7578125 2.35546875 C-1.25640074 5.73744485 -3.66050545 8.579668 -5 13 C-6.14023098 9.57930706 -6.12770913 8.38312738 -5 5 C-2.4375 2.1875 -2.4375 2.1875 0 0 Z " fill="#2C9C34" transform="translate(135,297)"/>
<path d="M0 0 C3.3 0.99 6.6 1.98 10 3 C9.67 4.32 9.34 5.64 9 7 C2.25 3.375 2.25 3.375 0 0 Z " fill="#1C11A0" transform="translate(59,258)"/>
<path d="M0 0 C3.40312738 1.05875074 6.01353231 2.00902154 9 4 C9.33 3.34 9.66 2.68 10 2 C10 3.65 10 5.3 10 7 C6.2089881 5.55049545 2.6125362 3.84827434 -1 2 C-0.67 1.34 -0.34 0.68 0 0 Z " fill="#E5E3F8" transform="translate(325,171)"/>
<path d="M0 0 C0.99 0 1.98 0 3 0 C2.69381595 3.67420866 2.24228216 4.78135513 -0.5625 7.3125 C-1.366875 7.869375 -2.17125 8.42625 -3 9 C-3 7.68 -3 6.36 -3 5 C-2.01 4.67 -1.02 4.34 0 4 C0 2.68 0 1.36 0 0 Z " fill="#D28F44" transform="translate(280,96)"/>
<path d="M0 0 C0.33 0.66 0.66 1.32 1 2 C0.030625 2.7425 -0.93875 3.485 -1.9375 4.25 C-4.54250022 6.39243009 -5.40004538 7.64025413 -6 11 C-6.99 11.33 -7.98 11.66 -9 12 C-8.52379711 7.62346871 -7.33100111 5.93461995 -3.9375 3.1875 C-3.20402344 2.58292969 -2.47054687 1.97835938 -1.71484375 1.35546875 C-1.14894531 0.90816406 -0.58304688 0.46085937 0 0 Z " fill="#2C9A37" transform="translate(223,294)"/>
<path d="M0 0 C0.33 0.66 0.66 1.32 1 2 C2.58367747 1.85795259 4.16693318 1.71119847 5.75 1.5625 C6.63171875 1.48128906 7.5134375 1.40007812 8.421875 1.31640625 C10.69350452 1.03761535 12.79851823 0.61209423 15 0 C15.33 0.99 15.66 1.98 16 3 C10.72 3 5.44 3 0 3 C0 2.01 0 1.02 0 0 Z " fill="#F4FDEE" transform="translate(125,290)"/>
<path d="M0 0 C2.31 0.66 4.62 1.32 7 2 C7 2.66 7 3.32 7 4 C7.99 4.33 8.98 4.66 10 5 C10 5.99 10 6.98 10 8 C6.05205855 6.32971708 3.18203882 3.8204435 0 1 C0 0.67 0 0.34 0 0 Z " fill="#281DA3" transform="translate(273,256)"/>
<path d="M0 0 C0 1.32 0 2.64 0 4 C-2.31 4 -4.62 4 -7 4 C-7 3.01 -7 2.02 -7 1 C-4.53721199 -0.231394 -2.7204945 -0.07159196 0 0 Z " fill="#1305B9" transform="translate(179,183)"/>
<path d="M0 0 C3 1 3 1 4.75 3.4375 C5.36875 4.7059375 5.36875 4.7059375 6 6 C5.67 6.66 5.34 7.32 5 8 C2.5 6.8125 2.5 6.8125 0 5 C-0.3125 2.3125 -0.3125 2.3125 0 0 Z " fill="#2316A7" transform="translate(226,178)"/>
<path d="M0 0 C1.37095624 3.69037278 0.60010967 5.70883835 -0.9375 9.25 C-1.31777344 10.14203125 -1.69804687 11.0340625 -2.08984375 11.953125 C-2.39019531 12.62859375 -2.69054687 13.3040625 -3 14 C-3.66 13.01 -4.32 12.02 -5 11 C-4.319375 9.948125 -4.319375 9.948125 -3.625 8.875 C-1.98313057 5.97015409 -0.96322901 3.1860652 0 0 Z " fill="#D4F7D8" transform="translate(264,369)"/>
<path d="M0 0 C5.8022175 -0.36263859 9.63999211 0.74315457 15 3 C15 3.33 15 3.66 15 4 C9.72684667 3.5547115 4.98229776 2.91626837 0 1 C0 0.67 0 0.34 0 0 Z " fill="#D5F7D8" transform="translate(230,282)"/>
<path d="M0 0 C0.99 0.33 1.98 0.66 3 1 C3.6875 3.0625 3.6875 3.0625 4 5 C3.34 5 2.68 5 2 5 C2 5.66 2 6.32 2 7 C-2.875 5.25 -2.875 5.25 -4 3 C-2.68 2.67 -1.36 2.34 0 2 C0 1.34 0 0.68 0 0 Z " fill="#1103A9" transform="translate(275,250)"/>
<path d="M0 0 C0.66 0 1.32 0 2 0 C1.67 3.63 1.34 7.26 1 11 C0.01 10.67 -0.98 10.34 -2 10 C-1.34 6.7 -0.68 3.4 0 0 Z " fill="#1B0F9A" transform="translate(169,201)"/>
<path d="M0 0 C2.475 0.495 2.475 0.495 5 1 C4.67 4.3 4.34 7.6 4 11 C3.67 11 3.34 11 3 11 C2.01 7.37 1.02 3.74 0 0 Z " fill="#150999" transform="translate(217,190)"/>
<path d="M0 0 C0.66 0.33 1.32 0.66 2 1 C1.67 1.99 1.34 2.98 1 4 C0.01 4 -0.98 4 -2 4 C-2.12375 4.969375 -2.2475 5.93875 -2.375 6.9375 C-2.58125 7.948125 -2.7875 8.95875 -3 10 C-3.99 10.495 -3.99 10.495 -5 11 C-4.54663921 6.12637153 -3.2910841 3.60957611 0 0 Z " fill="#D0985C" transform="translate(111,84)"/>
<path d="M0 0 C1.8272911 2.74093665 2.93698178 5.13825324 4.125 8.1875 C4.47820312 9.08855469 4.83140625 9.98960937 5.1953125 10.91796875 C5.46085938 11.60503906 5.72640625 12.29210937 6 13 C5.01 13 4.02 13 3 13 C2.49242138 11.58603098 1.99425075 10.16868271 1.5 8.75 C1.08234375 7.56664062 1.08234375 7.56664062 0.65625 6.359375 C0 4 0 4 0 0 Z " fill="#36A33D" transform="translate(128,336)"/>
<path d="M0 0 C1.37432457 3.81756824 0.67975039 7.07255329 0 11 C-0.99 11.33 -1.98 11.66 -3 12 C-2.49202991 7.6822542 -1.80317221 3.96697886 0 0 Z " fill="#CEF4CF" transform="translate(131,305)"/>
<path d="M0 0 C0.66 0.99 1.32 1.98 2 3 C0.515 5.475 0.515 5.475 -1 8 C-2.5 6.625 -2.5 6.625 -4 5 C-4 4.34 -4 3.68 -4 3 C-3.34 3 -2.68 3 -2 3 C-1.34 2.01 -0.68 1.02 0 0 Z " fill="#E9FBF1" transform="translate(253,297)"/>
<path d="M0 0 C-1.4096347 0.70180531 -2.82807641 1.38593958 -4.25 2.0625 C-5.03890625 2.44535156 -5.8278125 2.82820313 -6.640625 3.22265625 C-9.25993522 4.08564091 -10.44855176 3.93045933 -13 3 C-11.5903653 2.29819469 -10.17192359 1.61406042 -8.75 0.9375 C-7.96109375 0.55464844 -7.1721875 0.17179687 -6.359375 -0.22265625 C-3.74006478 -1.08564091 -2.55144824 -0.93045933 0 0 Z " fill="#DEF7D8" transform="translate(226,283)"/>
<path d="M0 0 C0.66 0.33 1.32 0.66 2 1 C0.55609075 4.80666984 -1.34952803 6.26602582 -5 8 C-5.66 7.67 -6.32 7.34 -7 7 C-6.25 5.0625 -6.25 5.0625 -5 3 C-2.9375 2.375 -2.9375 2.375 -1 2 C-0.67 1.34 -0.34 0.68 0 0 Z " fill="#1C0BBB" transform="translate(333,245)"/>
<path d="M0 0 C2.64 0.33 5.28 0.66 8 1 C8 1.33 8 1.66 8 2 C6.8553125 2.1546875 6.8553125 2.1546875 5.6875 2.3125 C2.82940576 3.04364039 1.84257115 3.76951913 0 6 C-1.125 2.25 -1.125 2.25 0 0 Z " fill="#F6FBFB" transform="translate(190,4)"/>
<path d="M0 0 C2.64 0 5.28 0 8 0 C8.33 0.66 8.66 1.32 9 2 C9.99 2.66 10.98 3.32 12 4 C7.6822542 3.49202991 3.96697886 2.80317221 0 1 C0 0.67 0 0.34 0 0 Z " fill="#D3F8D5" transform="translate(144,357)"/>
<path d="M0 0 C0.33 0 0.66 0 1 0 C0.67 4.95 0.34 9.9 0 15 C-0.33 15 -0.66 15 -1 15 C-1.22134176 12.87631556 -1.42670007 10.75095976 -1.625 8.625 C-1.74101562 7.44164062 -1.85703125 6.25828125 -1.9765625 5.0390625 C-1.98429688 4.03617187 -1.99203125 3.03328125 -2 2 C-1.34 1.34 -0.68 0.68 0 0 Z " fill="#D7F7D9" transform="translate(211,310)"/>
<path d="M0 0 C-4.9731874 4.08511822 -8.62505604 4.12259508 -15 4 C-15 3.67 -15 3.34 -15 3 C-11.97265625 2.26757812 -11.97265625 2.26757812 -8.9453125 1.53515625 C-3.07117812 -0.08082048 -3.07117812 -0.08082048 0 0 Z " fill="#FEF2DD" transform="translate(137,117)"/>
<path d="M0 0 C0.33 0 0.66 0 1 0 C0.67 3.63 0.34 7.26 0 11 C-1.32 10.67 -2.64 10.34 -4 10 C-2.68 6.7 -1.36 3.4 0 0 Z " fill="#FBEBCB" transform="translate(146,91)"/>
<path d="M0 0 C1.98 0 3.96 0 6 0 C5.01 0.33 4.02 0.66 3 1 C3 1.66 3 2.32 3 3 C2.34 3 1.68 3 1 3 C1 6.3 1 9.6 1 13 C0.67 13 0.34 13 0 13 C0 8.71 0 4.42 0 0 Z " fill="#FEF8EE" transform="translate(228,35)"/>
<path d="M0 0 C0.721875 0.61875 1.44375 1.2375 2.1875 1.875 C4.78381938 3.83666353 6.94671666 4.95316 10 6 C10 6.33 10 6.66 10 7 C7.69 6.67 5.38 6.34 3 6 C3 5.34 3 4.68 3 4 C2.01 3.67 1.02 3.34 0 3 C0 2.01 0 1.02 0 0 Z " fill="#DBFBD9" transform="translate(216,344)"/>
<path d="M0 0 C2.5625 1.25 2.5625 1.25 5 3 C5.33 3.99 5.66 4.98 6 6 C0.25 4.375 0.25 4.375 -2 1 C-1.34 0.67 -0.68 0.34 0 0 Z " fill="#DFDFF8" transform="translate(290,250)"/>
<path d="M0 0 C0.66 0.33 1.32 0.66 2 1 C1.67 1.66 1.34 2.32 1 3 C1.66 3 2.32 3 3 3 C3.33 4.65 3.66 6.3 4 8 C3.01 8 2.02 8 1 8 C-1.125 3.375 -1.125 3.375 0 0 Z " fill="#2515B0" transform="translate(267,242)"/>
<path d="M0 0 C2.76223278 2.76223278 2.57856291 5.20706617 3 9 C2.01 9 1.02 9 0 9 C-1.125 2.25 -1.125 2.25 0 0 Z " fill="#E1E0F8" transform="translate(331,198)"/>
<path d="M0 0 C0.66 1.32 1.32 2.64 2 4 C1.01 4.33 0.02 4.66 -1 5 C-1.3721042 6.32303717 -1.70630173 7.65737935 -2 9 C-2.99 9.495 -2.99 9.495 -4 10 C-3.43454163 6.04179141 -2.19097652 3.3340947 0 0 Z " fill="#E2E3F9" transform="translate(68,191)"/>
<path d="M0 0 C1.32 0 2.64 0 4 0 C4 0.99 4 1.98 4 3 C3.34 3 2.68 3 2 3 C2.33 4.65 2.66 6.3 3 8 C2.34 8 1.68 8 1 8 C-0.42944945 5.64561267 -1.08661261 4.51967567 -0.625 1.75 C-0.41875 1.1725 -0.2125 0.595 0 0 Z " fill="#2013A8" transform="translate(108,187)"/>
<path d="M0 0 C0.66 0.33 1.32 0.66 2 1 C-0.64 3.64 -3.28 6.28 -6 9 C-6.33 8.34 -6.66 7.68 -7 7 C-6.67 6.01 -6.34 5.02 -6 4 C-5.01 4 -4.02 4 -3 4 C-3 3.34 -3 2.68 -3 2 C-2.01 1.34 -1.02 0.68 0 0 Z " fill="#FEF4DB" transform="translate(146,107)"/>
<path d="M0 0 C0.33 0.66 0.66 1.32 1 2 C0.38125 2.28875 -0.2375 2.5775 -0.875 2.875 C-3.13325765 3.93720042 -3.13325765 3.93720042 -5 6 C-5.66 4.35 -6.32 2.7 -7 1 C-3.535 0.505 -3.535 0.505 0 0 Z " fill="#07A01E" transform="translate(183,359)"/>
<path d="M0 0 C5.28 0 10.56 0 16 0 C14.515 1.485 14.515 1.485 13 3 C12.67 2.67 12.34 2.34 12 2 C9.98405418 1.76572222 7.961526 1.58663876 5.9375 1.4375 C4.83277344 1.35371094 3.72804687 1.26992188 2.58984375 1.18359375 C1.73519531 1.12300781 0.88054687 1.06242187 0 1 C0 0.67 0 0.34 0 0 Z " fill="#21982C" transform="translate(125,294)"/>
<path d="M0 0 C0.66 0 1.32 0 2 0 C0.44499019 3.81684226 -2.03595495 6.19195732 -5 9 C-5.66 8.67 -6.32 8.34 -7 8 C-5.88200014 6.66079162 -4.75538103 5.32877444 -3.625 4 C-2.68527344 2.88625 -2.68527344 2.88625 -1.7265625 1.75 C-1.15679687 1.1725 -0.58703125 0.595 0 0 Z " fill="#D5F9D5" transform="translate(211,287)"/>
<path d="M0 0 C3.465 1.98 3.465 1.98 7 4 C4.29120665 5.35439668 1.99066732 5.06501451 -1 5 C-1 2 -1 2 0 0 Z " fill="#EDEBFD" transform="translate(319,185)"/>
<path d="M0 0 C-1 2 -1 2 -4.0625 3.125 C-5.5165625 3.558125 -5.5165625 3.558125 -7 4 C-7.66 3.01 -8.32 2.02 -9 1 C-6.04335481 -0.4783226 -3.25770263 -0.06032783 0 0 Z " fill="#1E12A4" transform="translate(189,182)"/>
<path d="M0 0 C1.65 0 3.3 0 5 0 C4.67 1.32 4.34 2.64 4 4 C2.68 3.67 1.36 3.34 0 3 C0 2.01 0 1.02 0 0 Z " fill="#E1831E" transform="translate(104,66)"/>
<path d="M0 0 C3.0831351 1.19899698 6.06279492 2.47700477 9 4 C9 4.66 9 5.32 9 6 C6.36 5.34 3.72 4.68 1 4 C0.67 2.68 0.34 1.36 0 0 Z " fill="#209B2E" transform="translate(137,354)"/>
<path d="M0 0 C0.33 0 0.66 0 1 0 C1 1.98 1 3.96 1 6 C-0.98 6 -2.96 6 -5 6 C-3.35830472 3.97945196 -1.69088222 1.97956942 0 0 Z " fill="#389B43" transform="translate(252,351)"/>
<path d="M0 0 C0.99 0.495 0.99 0.495 2 1 C2.59355614 3.64860427 2.74209269 6.29197322 3 9 C2.34 9 1.68 9 1 9 C-0.4783226 6.04335481 -0.06032783 3.25770263 0 0 Z " fill="#DFF4D4" transform="translate(210,329)"/>
<path d="M0 0 C2.69082872 0.17635452 5.32851446 0.61835921 8 1 C8 1.66 8 2.32 8 3 C4.625 3.125 4.625 3.125 1 3 C0.34 2.34 -0.32 1.68 -1 1 C-0.67 0.67 -0.34 0.34 0 0 Z " fill="#E1EAF6" transform="translate(293,269)"/>
<path d="M0 0 C0.99 1.485 0.99 1.485 2 3 C2.99 3.66 3.98 4.32 5 5 C3.35 6.32 1.7 7.64 0 9 C0 6.03 0 3.06 0 0 Z " fill="#2418A7" transform="translate(285,182)"/>
<path d="M0 0 C1.32 0 2.64 0 4 0 C6.17457267 2.87354245 7 4.36436591 7 8 C1.125 3.375 1.125 3.375 0 0 Z " fill="#2013A2" transform="translate(99,182)"/>
<path d="M0 0 C0.99 0.495 0.99 0.495 2 1 C1.979375 1.9075 1.95875 2.815 1.9375 3.75 C1.9889755 6.42672588 2.2215017 8.46988052 3 11 C2.01 11 1.02 11 0 11 C0 7.37 0 3.74 0 0 Z " fill="#CD8C41" transform="translate(185,7)"/>
<path d="M0 0 C2.475 0.495 2.475 0.495 5 1 C5.33 2.98 5.66 4.96 6 7 C1.125 3.375 1.125 3.375 0 0 Z " fill="#20992D" transform="translate(144,339)"/>
<path d="M0 0 C0.33 1.32 0.66 2.64 1 4 C-0.32 4.99 -1.64 5.98 -3 7 C-3.66 6.67 -4.32 6.34 -5 6 C-3.35 4.02 -1.7 2.04 0 0 Z " fill="#E1FCDB" transform="translate(137,298)"/>
<path d="M0 0 C1.65 0.99 3.3 1.98 5 3 C1.42355152 4.2380014 -1.33694766 3.74926071 -5 3 C-4.34 2.34 -3.68 1.68 -3 1 C-2.01 1.33 -1.02 1.66 0 2 C0 1.34 0 0.68 0 0 Z " fill="#1B0FA0" transform="translate(332,177)"/>
<path d="M0 0 C-3.96 1.98 -3.96 1.98 -8 4 C-5.33333333 -1.33333333 -5.33333333 -1.33333333 0 0 Z " fill="#D7F8DB" transform="translate(256,388)"/>
<path d="M0 0 C0.33 0.99 0.66 1.98 1 3 C-0.9375 5.6875 -0.9375 5.6875 -3 8 C-3.1875 5.125 -3.1875 5.125 -3 2 C-2.01 1.34 -1.02 0.68 0 0 Z " fill="#269C32" transform="translate(251,369)"/>
<path d="M0 0 C0.33 1.32 0.66 2.64 1 4 C-0.98 4.99 -0.98 4.99 -3 6 C-3.99 5.34 -4.98 4.68 -6 4 C-4.02 2.68 -2.04 1.36 0 0 Z " fill="#CFF3D2" transform="translate(247,345)"/>
<path d="M0 0 C1.98 0.99 1.98 0.99 4 2 C3.67 3.65 3.34 5.3 3 7 C2.34 7 1.68 7 1 7 C0.67 6.01 0.34 5.02 0 4 C0.66 4 1.32 4 2 4 C2 3.34 2 2.68 2 2 C1.34 2 0.68 2 0 2 C0 1.34 0 0.68 0 0 Z " fill="#E5F9E3" transform="translate(245,286)"/>
<path d="M0 0 C2.475 0.495 2.475 0.495 5 1 C5.33 1.99 5.66 2.98 6 4 C4.35 4.33 2.7 4.66 1 5 C1.33 4.01 1.66 3.02 2 2 C1.34 2 0.68 2 0 2 C0 1.34 0 0.68 0 0 Z " fill="#251AA9" transform="translate(79,255)"/>
<path d="M0 0 C1.65 0.33 3.3 0.66 5 1 C4.67 1.66 4.34 2.32 4 3 C1.93359375 3.4140625 1.93359375 3.4140625 -0.5625 3.625 C-1.38878906 3.69976562 -2.21507813 3.77453125 -3.06640625 3.8515625 C-4.02353516 3.92503906 -4.02353516 3.92503906 -5 4 C-5.33 3.34 -5.66 2.68 -6 2 C-4.02 2 -2.04 2 0 2 C0 1.34 0 0.68 0 0 Z " fill="#EDF0F8" transform="translate(120,249)"/>
<path d="M0 0 C1.9375 0.625 1.9375 0.625 4 2 C4.75 5.125 4.75 5.125 5 8 C2.27573689 5.64722731 1.1858237 3.37503669 0 0 Z " fill="#E5E5FD" transform="translate(281,241)"/>
<path d="M0 0 C1.98 0.99 1.98 0.99 4 2 C3.67 3.98 3.34 5.96 3 8 C1.58622659 5.36095629 0.62759865 2.92879371 0 0 Z " fill="#E3E5F8" transform="translate(232,184)"/>
<path d="M0 0 C2.31 0.33 4.62 0.66 7 1 C6.01 1.495 6.01 1.495 5 2 C5 2.66 5 3.32 5 4 C3.02 3.34 1.04 2.68 -1 2 C-0.67 1.34 -0.34 0.68 0 0 Z " fill="#E0E0F6" transform="translate(219,171)"/>
<path d="M0 0 C1.32 0.33 2.64 0.66 4 1 C4 1.66 4 2.32 4 3 C5.98 3 7.96 3 10 3 C10 3.33 10 3.66 10 4 C3.375 4.25 3.375 4.25 0 2 C0 1.34 0 0.68 0 0 Z " fill="#F9E5C9" transform="translate(188,16)"/>
</svg>
